__template.ufo
<glyph name="arAin.fina" format="1">
  <advance width="862"/>
  <outline>
    <contour>
      <point x="455" y="124" type="curve"/>
      <point x="551" y="50"/>
      <point x="644" y="0"/>
      <point x="848" y="0" type="curve" smooth="yes"/>
      <point x="862" y="0" type="line"/>
      <point x="862" y="200" type="line"/>
      <point x="848" y="200" type="line" smooth="yes"/>
      <point x="744" y="200"/>
      <point x="660" y="202"/>
      <point x="596" y="233" type="curve"/>
      <point x="596" y="236" type="line"/>
      <point x="651" y="284"/>
      <point x="704" y="333"/>
      <point x="753" y="381" type="curve"/>
      <point x="766" y="435"/>
      <point x="774" y="484"/>
      <point x="782" y="533" type="curve"/>
      <point x="705" y="562"/>
      <point x="610" y="583"/>
      <point x="487" y="583" type="curve" smooth="yes"/>
      <point x="345" y="583"/>
      <point x="244" y="554"/>
      <point x="159" y="538" type="curve"/>
      <point x="101" y="374" type="line"/>
      <point x="110" y="364" type="line"/>
      <point x="125" y="368"/>
      <point x="141" y="371"/>
      <point x="158" y="371" type="curve" smooth="yes"/>
      <point x="208" y="371"/>
      <point x="248" y="307"/>
      <point x="331" y="228" type="curve"/>
      <point x="146" y="100"/>
      <point x="49" y="-47"/>
      <point x="49" y="-207" type="curve" smooth="yes"/>
      <point x="49" y="-441"/>
      <point x="249" y="-569"/>
      <point x="487" y="-569" type="curve" smooth="yes"/>
      <point x="544" y="-569"/>
      <point x="598" y="-562"/>
      <point x="650" y="-551" type="curve"/>
      <point x="739" y="-491"/>
      <point x="820" y="-430"/>
      <point x="885" y="-370" type="curve"/>
      <point x="874" y="-351" type="line"/>
      <point x="784" y="-366"/>
      <point x="693" y="-375"/>
      <point x="599" y="-375" type="curve" smooth="yes"/>
      <point x="311" y="-375"/>
      <point x="145" y="-245"/>
      <point x="145" y="-133" type="curve" smooth="yes"/>
      <point x="145" y="-61"/>
      <point x="273" y="42"/>
    </contour>
    <contour>
      <point x="475" y="276" type="curve"/>
      <point x="418" y="319"/>
      <point x="363" y="366"/>
      <point x="311" y="409" type="curve"/>
      <point x="311" y="414" type="line"/>
      <point x="359" y="424"/>
      <point x="415" y="429"/>
      <point x="477" y="429" type="curve" smooth="yes"/>
      <point x="535" y="429"/>
      <point x="597" y="424"/>
      <point x="658" y="408" type="curve"/>
      <point x="658" y="403" type="line"/>
      <point x="609" y="364"/>
      <point x="545" y="318"/>
    </contour>
    <contour>
      <point x="477" y="780.429" type="move" name="dotAbove"/>
    </contour>
    <contour>
      <point x="475" y="823.096" type="move" name="markAbove"/>
    </contour>
    <contour>
      <point x="283.307" y="-575" type="move" name="markBelow"/>
    </contour>
    <contour>
      <point x="455" y="-72.904" type="move" name="dotBelow"/>
    </contour>
  </outline>
</glyph>
<glyph name="arAlefShort.isol.la" format="1">
  <advance width="479.145" height="1368"/>
  <outline>
    <contour>
      <point x="200" y="591" type="curve" smooth="yes"/>
      <point x="328" y="422"/>
      <point x="424" y="283"/>
      <point x="450" y="195" type="curve"/>
      <point x="469.428" y="123.924"/>
      <point x="492.992" y="121.252"/>
      <point x="492.992" y="121.252" type="curve"/>
      <point x="503.407" y="121.161"/>
      <point x="498.093" y="138.014"/>
      <point x="503.438" y="177.854" type="curve"/>
      <point x="506" y="226" type="line"/>
      <point x="506" y="398"/>
      <point x="413" y="509"/>
      <point x="291" y="698" type="curve"/>
      <point x="335" y="777" type="line"/>
      <point x="232" y="834"/>
      <point x="153" y="887"/>
      <point x="109" y="933" type="curve"/>
      <point x="95" y="933" type="line"/>
      <point x="75" y="883"/>
      <point x="63" y="840"/>
      <point x="63" y="806" type="curve" smooth="yes"/>
      <point x="63" y="747"/>
      <point x="134" y="678"/>
    </contour>
    <contour>
      <point x="60" y="1058.62" type="move" name="hamzaAbove"/>
    </contour>
    <contour>
      <point x="134" y="1097.87" type="move" name="markAbove"/>
    </contour>
    <contour>
      <point x="203.093" y="-101.917" type="move" name="hamzaBelow"/>
    </contour>
    <contour>
      <point x="203.093" y="-52" type="move" name="markBelow"/>
    </contour>
    <contour>
      <point x="134" y="1145.66" type="move" name="dotAbove"/>
    </contour>
    <contour>
      <point x="225" y="-100.211" type="move" name="dotBelow"/>
    </contour>
  </outline>
</glyph>
<glyph name="arBeh.init" format="1">
  <advance width="435"/>
  <outline>
    <contour>
      <point x="244" y="599" type="line"/>
      <point x="210" y="554"/>
      <point x="176" y="502"/>
      <point x="142" y="443" type="curve"/>
      <point x="188" y="364"/>
      <point x="240" y="263"/>
      <point x="240" y="239" type="curve" smooth="yes"/>
      <point x="240" y="223"/>
      <point x="137" y="200"/>
      <point x="22" y="200" type="curve" smooth="yes"/>
      <point x="0" y="200" type="line" smooth="yes"/>
      <point x="-48" y="200"/>
      <point x="-70" y="148"/>
      <point x="-70" y="100" type="curve" smooth="yes"/>
      <point x="-70" y="52"/>
      <point x="-48" y="0"/>
      <point x="0" y="0" type="curve" smooth="yes"/>
      <point x="14" y="0" type="line" smooth="yes"/>
      <point x="105" y="0"/>
      <point x="170" y="13"/>
      <point x="216" y="34" type="curve" smooth="yes"/>
      <point x="250" y="49"/>
      <point x="282" y="78"/>
      <point x="314" y="136" type="curve"/>
      <point x="344" y="200"/>
      <point x="355" y="259"/>
      <point x="355" y="318" type="curve" smooth="yes"/>
      <point x="355" y="382"/>
      <point x="323" y="473"/>
      <point x="254" y="597" type="curve"/>
    </contour>
    <contour>
      <point x="168.877" y="788.682" type="move" name="dotAbove"/>
    </contour>
    <contour>
      <point x="80.3879" y="719.857" type="move" name="smallVAbove"/>
    </contour>
    <contour>
      <point x="129.549" y="1019.74" type="move" name="markAbove"/>
    </contour>
    <contour>
      <point x="65.6396" y="675.612" type="move" name="hamzaAbove"/>
    </contour>
    <contour>
      <point x="126.293" y="-219.336" type="move" name="dotBelow"/>
    </contour>
    <contour>
      <point x="134.465" y="-184.702" type="move" name="markBelow"/>
    </contour>
    <contour>
      <point x="259.413" y="22.6693" type="move" name="ringBelow"/>
    </contour>
  </outline>
</glyph>
<glyph name="arDal.fina" format="1">
  <advance width="774"/>
  <outline>
    <contour>
      <point x="774" y="200" type="line"/>
      <point x="760" y="200" type="line" smooth="yes"/>
      <point x="680" y="200"/>
      <point x="627" y="252"/>
      <point x="607" y="366" type="curve" smooth="yes"/>
      <point x="572" y="561"/>
      <point x="546" y="676"/>
      <point x="521" y="767" type="curve"/>
      <point x="504" y="772" type="line"/>
      <point x="469" y="727"/>
      <point x="439" y="682"/>
      <point x="412" y="635" type="curve"/>
      <point x="462" y="496"/>
      <point x="498" y="340"/>
      <point x="498" y="301" type="curve" smooth="yes"/>
      <point x="498" y="270"/>
      <point x="472" y="251"/>
      <point x="435" y="235" type="curve" smooth="yes"/>
      <point x="383" y="212"/>
      <point x="334" y="200"/>
      <point x="288" y="200" type="curve" smooth="yes"/>
      <point x="204" y="200"/>
      <point x="165" y="246"/>
      <point x="161" y="324" type="curve"/>
      <point x="96" y="318" type="line"/>
      <point x="94" y="282"/>
      <point x="94" y="253"/>
      <point x="94" y="233" type="curve" smooth="yes"/>
      <point x="94" y="62"/>
      <point x="166" y="0"/>
      <point x="271" y="0" type="curve" smooth="yes"/>
      <point x="358" y="0"/>
      <point x="428" y="25"/>
      <point x="486" y="71" type="curve" smooth="yes"/>
      <point x="508" y="88"/>
      <point x="526" y="117"/>
      <point x="541" y="168" type="curve"/>
      <point x="544" y="168" type="line"/>
      <point x="581" y="40"/>
      <point x="659" y="0"/>
      <point x="760" y="0" type="curve" smooth="yes"/>
      <point x="774" y="0" type="line"/>
    </contour>
    <contour>
      <point x="453.973" y="934.371" type="move" name="dotAbove"/>
    </contour>
    <contour>
      <point x="313" y="934.371" type="move" name="markAbove"/>
    </contour>
    <contour>
      <point x="375.353" y="-179.786" type="move" name="markBelow"/>
    </contour>
    <contour>
      <point x="488.107" y="-154.483" type="move" name="dotBelow"/>
    </contour>
    <contour>
      <point x="313" y="879.416" type="move" name="hamzaAbove"/>
    </contour>
  </outline>
</glyph>
<glyph name="arFeh.fina" format="1">
  <advance width="1473"/>
  <outline>
    <contour>
      <point x="1473" y="0" type="line"/>
      <point x="1473" y="200" type="line"/>
      <point x="1459" y="200" type="line" smooth="yes"/>
      <point x="1410" y="200"/>
      <point x="1362" y="203"/>
      <point x="1316" y="214" type="curve"/>
      <point x="1342" y="267"/>
      <point x="1366" y="331"/>
      <point x="1366" y="420" type="curve" smooth="yes"/>
      <point x="1366" y="490"/>
      <point x="1351" y="558"/>
      <point x="1307" y="622" type="curve" smooth="yes"/>
      <point x="1281" y="660"/>
      <point x="1249" y="686"/>
      <point x="1209" y="686" type="curve" smooth="yes"/>
      <point x="1158" y="686"/>
      <point x="1106" y="654"/>
      <point x="1058" y="607" type="curve" smooth="yes"/>
      <point x="987" y="538"/>
      <point x="941" y="454"/>
      <point x="941" y="344" type="curve" smooth="yes"/>
      <point x="941" y="290"/>
      <point x="948" y="241"/>
      <point x="959" y="200" type="curve"/>
      <point x="851" y="176"/>
      <point x="745" y="165"/>
      <point x="637" y="165" type="curve"/>
      <point x="351" y="166"/>
      <point x="199" y="273"/>
      <point x="199" y="443" type="curve" smooth="yes"/>
      <point x="199" y="482"/>
      <point x="208" y="522"/>
      <point x="225" y="563" type="curve"/>
      <point x="161" y="588" type="line"/>
      <point x="122" y="500"/>
      <point x="100" y="409"/>
      <point x="100" y="322" type="curve" smooth="yes"/>
      <point x="100" y="92"/>
      <point x="273" y="-44"/>
      <point x="590" y="-44" type="curve" smooth="yes"/>
      <point x="769" y="-44"/>
      <point x="957" y="-6"/>
      <point x="1149" y="59" type="curve"/>
      <point x="1233" y="22"/>
      <point x="1321" y="0"/>
      <point x="1459" y="0" type="curve" smooth="yes"/>
    </contour>
    <contour>
      <point x="1010" y="365" type="curve"/>
      <point x="1038" y="433"/>
      <point x="1105" y="497"/>
      <point x="1169" y="497" type="curve" smooth="yes"/>
      <point x="1236" y="497"/>
      <point x="1287" y="402"/>
      <point x="1287" y="354" type="curve" smooth="yes"/>
      <point x="1287" y="321"/>
      <point x="1232" y="270"/>
      <point x="1144" y="244" type="curve"/>
      <point x="1069" y="271"/>
      <point x="1021" y="312"/>
    </contour>
    <contour>
      <point x="1157.12" y="872.931" type="move" name="dotAbove"/>
    </contour>
    <contour>
      <point x="509.21" y="669" type="move" name="markAbove"/>
    </contour>
    <contour>
      <point x="500.005" y="-162.885" type="move" name="markBelow"/>
    </contour>
    <contour>
      <point x="1150.29" y="-174.963" type="move" name="dotBelow"/>
    </contour>
  </outline>
</glyph>
<glyph name="arFeh.isol" format="1">
  <advance width="1338"/>
  <outline>
    <contour>
      <point x="1161" y="276" type="curve"/>
      <point x="1161" y="249"/>
      <point x="1144" y="234"/>
      <point x="1104" y="223" type="curve" smooth="yes"/>
      <point x="959" y="186"/>
      <point x="807" y="165"/>
      <point x="646" y="165" type="curve" smooth="yes"/>
      <point x="345" y="165"/>
      <point x="200" y="281"/>
      <point x="200" y="439" type="curve" smooth="yes"/>
      <point x="200" y="476"/>
      <point x="207" y="518"/>
      <point x="225" y="566" type="curve"/>
      <point x="161" y="590" type="line"/>
      <point x="126" y="511"/>
      <point x="101" y="422"/>
      <point x="101" y="308" type="curve" smooth="yes"/>
      <point x="101" y="114"/>
      <point x="254" y="-44"/>
      <point x="585" y="-44" type="curve" smooth="yes"/>
      <point x="763" y="-44"/>
      <point x="914" y="-21"/>
      <point x="1052" y="16" type="curve" smooth="yes"/>
      <point x="1121" y="35"/>
      <point x="1173" y="56"/>
      <point x="1199" y="76" type="curve"/>
      <point x="1236" y="153"/>
      <point x="1253" y="236"/>
      <point x="1253" y="307" type="curve" smooth="yes"/>
      <point x="1253" y="520"/>
      <point x="1165" y="751"/>
      <point x="1029" y="751" type="curve" smooth="yes"/>
      <point x="972" y="751"/>
      <point x="918" y="718"/>
      <point x="870" y="666" type="curve" smooth="yes"/>
      <point x="819" y="611"/>
      <point x="791" y="542"/>
      <point x="791" y="464" type="curve" smooth="yes"/>
      <point x="791" y="333"/>
      <point x="885" y="273"/>
      <point x="1055" y="273" type="curve" smooth="yes"/>
      <point x="1090" y="273"/>
      <point x="1126" y="273"/>
    </contour>
    <contour>
      <point x="1138" y="428" type="curve"/>
      <point x="981" y="432"/>
      <point x="876" y="471"/>
      <point x="876" y="527" type="curve" smooth="yes"/>
      <point x="876" y="557"/>
      <point x="916" y="594"/>
      <point x="984" y="594" type="curve" smooth="yes"/>
      <point x="1050" y="594"/>
      <point x="1101" y="533"/>
    </contour>
    <contour>
      <point x="445.44" y="710.456" type="move" name="markAbove"/>
    </contour>
    <contour>
      <point x="980.067" y="896.229" type="move" name="dotAbove"/>
    </contour>
    <contour>
      <point x="414.097" y="-138.34" type="move" name="markBelow"/>
    </contour>
    <contour>
      <point x="998.744" y="-154.805" type="move" name="dotBelow"/>
    </contour>
  </outline>
</glyph>
<glyph name="arFeh.medi" format="1">
  <advance width="655"/>
  <outline>
    <contour>
      <point x="0" y="200" type="line" smooth="yes"/>
      <point x="-48" y="200"/>
      <point x="-70" y="148"/>
      <point x="-70" y="100" type="curve" smooth="yes"/>
      <point x="-70" y="52"/>
      <point x="-48" y="0"/>
      <point x="0" y="0" type="curve" smooth="yes"/>
      <point x="14" y="0" type="line" smooth="yes"/>
      <point x="124" y="0"/>
      <point x="216" y="23"/>
      <point x="294" y="62" type="curve"/>
      <point x="435" y="13"/>
      <point x="494" y="0"/>
      <point x="641" y="0" type="curve" smooth="yes"/>
      <point x="655" y="0" type="line"/>
      <point x="655" y="200" type="line"/>
      <point x="641" y="200" type="line"/>
      <point x="597" y="201"/>
      <point x="548" y="205"/>
      <point x="496" y="213" type="curve"/>
      <point x="526" y="277"/>
      <point x="548" y="345"/>
      <point x="548" y="420" type="curve" smooth="yes"/>
      <point x="548" y="490"/>
      <point x="533" y="558"/>
      <point x="489" y="622" type="curve" smooth="yes"/>
      <point x="463" y="660"/>
      <point x="431" y="686"/>
      <point x="391" y="686" type="curve" smooth="yes"/>
      <point x="340" y="686"/>
      <point x="288" y="654"/>
      <point x="240" y="607" type="curve" smooth="yes"/>
      <point x="169" y="538"/>
      <point x="125" y="454"/>
      <point x="125" y="344" type="curve" smooth="yes"/>
      <point x="125" y="296"/>
      <point x="131" y="252"/>
      <point x="141" y="212" type="curve"/>
      <point x="105" y="204"/>
      <point x="61" y="200"/>
      <point x="14" y="200" type="curve" smooth="yes"/>
    </contour>
    <contour>
      <point x="192" y="365" type="curve"/>
      <point x="220" y="433"/>
      <point x="287" y="497"/>
      <point x="351" y="497" type="curve" smooth="yes"/>
      <point x="418" y="497"/>
      <point x="468" y="402"/>
      <point x="468" y="354" type="curve" smooth="yes"/>
      <point x="468" y="321"/>
      <point x="414" y="272"/>
      <point x="326" y="246" type="curve"/>
      <point x="251" y="273"/>
      <point x="203" y="312"/>
    </contour>
    <contour>
      <point x="356.845" y="842.238" type="move" name="dotAbove"/>
    </contour>
    <contour>
      <point x="331.257" y="1101.19" type="move" name="markAbove"/>
    </contour>
    <contour>
      <point x="297.507" y="-147.544" type="move" name="markBelow"/>
    </contour>
    <contour>
      <point x="288.866" y="-109.159" type="move" name="dotBelow"/>
    </contour>
  </outline>
</glyph>
<glyph name="arHeh.isol" format="1">
  <advance width="696"/>
  <outline>
    <contour>
      <point x="254" y="594" type="line"/>
      <point x="163" y="483"/>
      <point x="100" y="382"/>
      <point x="100" y="236" type="curve" smooth="yes"/>
      <point x="100" y="168"/>
      <point x="129" y="-15"/>
      <point x="329" y="-15" type="curve" smooth="yes"/>
      <point x="418" y="-15"/>
      <point x="511" y="29"/>
      <point x="567" y="106" type="curve"/>
      <point x="594" y="161"/>
      <point x="616" y="224"/>
      <point x="616" y="316" type="curve" smooth="yes"/>
      <point x="616" y="422"/>
      <point x="584" y="486"/>
      <point x="506" y="556" type="curve" smooth="yes"/>
      <point x="439" y="616"/>
      <point x="360" y="667"/>
      <point x="290" y="725" type="curve"/>
      <point x="269" y="711" type="line"/>
    </contour>
    <contour>
      <point x="319" y="481" type="curve"/>
      <point x="450" y="407"/>
      <point x="518" y="338"/>
      <point x="526" y="272" type="curve"/>
      <point x="495" y="219"/>
      <point x="411" y="188"/>
      <point x="345" y="188" type="curve" smooth="yes"/>
      <point x="255" y="188"/>
      <point x="194" y="243"/>
      <point x="194" y="303" type="curve" smooth="yes"/>
      <point x="194" y="346"/>
      <point x="231" y="404"/>
    </contour>
    <contour>
      <point x="245.76" y="862.349" type="move" name="hamzaAbove"/>
    </contour>
    <contour>
      <point x="310.613" y="894.776" type="move" name="dotAbove"/>
    </contour>
    <contour>
      <point x="308.907" y="938" type="move" name="markAbove"/>
    </contour>
    <contour>
      <point x="358" y="-93.384" type="move" name="markBelow"/>
    </contour>
    <contour>
      <point x="339.627" y="-197.491" type="move" name="dotBelow"/>
    </contour>
  </outline>
</glyph>
<glyph name="arKaf.fina" format="1">
  <advance width="1111"/>
  <outline>
    <contour>
      <point x="919" y="1039" type="line"/>
      <point x="877" y="1003"/>
      <point x="841" y="964"/>
      <point x="804" y="923" type="curve"/>
      <point x="823" y="715"/>
      <point x="835" y="517"/>
      <point x="836" y="333" type="curve"/>
      <point x="740" y="255"/>
      <point x="583" y="202"/>
      <point x="446" y="202" type="curve" smooth="yes"/>
      <point x="305" y="202"/>
      <point x="196" y="270"/>
      <point x="196" y="441" type="curve" smooth="yes"/>
      <point x="196" y="482"/>
      <point x="203" y="523"/>
      <point x="214" y="564" type="curve"/>
      <point x="155" y="583" type="line"/>
      <point x="115" y="490"/>
      <point x="100" y="405"/>
      <point x="100" y="323" type="curve" smooth="yes"/>
      <point x="100" y="123"/>
      <point x="234" y="0"/>
      <point x="435" y="0" type="curve" smooth="yes"/>
      <point x="522" y="0"/>
      <point x="611" y="21"/>
      <point x="702" y="62" type="curve" smooth="yes"/>
      <point x="773" y="95"/>
      <point x="829" y="132"/>
      <point x="863" y="173" type="curve"/>
      <point x="867" y="173" type="line"/>
      <point x="893" y="57"/>
      <point x="967" y="0"/>
      <point x="1097" y="0" type="curve" smooth="yes"/>
      <point x="1111" y="0" type="line"/>
      <point x="1111" y="200" type="line"/>
      <point x="1097" y="200" type="line" smooth="yes"/>
      <point x="1005" y="200"/>
      <point x="949" y="251"/>
      <point x="949" y="389" type="curve" smooth="yes"/>
      <point x="949" y="537" type="line" smooth="yes"/>
      <point x="949" y="685"/>
      <point x="947" y="864"/>
      <point x="931" y="1031" type="curve"/>
    </contour>
    <contour>
      <point x="600" y="716" type="line"/>
      <point x="607" y="737"/>
      <point x="612" y="756"/>
      <point x="612" y="777" type="curve" smooth="yes"/>
      <point x="612" y="808"/>
      <point x="601" y="829"/>
      <point x="570" y="829" type="curve" smooth="yes"/>
      <point x="545" y="829"/>
      <point x="513" y="808"/>
      <point x="476" y="776" type="curve" smooth="yes"/>
      <point x="427" y="732"/>
      <point x="398" y="671"/>
      <point x="398" y="597" type="curve" smooth="yes"/>
      <point x="398" y="586"/>
      <point x="398" y="577"/>
      <point x="400" y="566" type="curve"/>
      <point x="494" y="565"/>
      <point x="569" y="569"/>
      <point x="569" y="551" type="curve" smooth="yes"/>
      <point x="569" y="524"/>
      <point x="486" y="506"/>
      <point x="339" y="496" type="curve"/>
      <point x="334" y="480" type="line"/>
      <point x="362" y="461"/>
      <point x="392" y="444"/>
      <point x="424" y="428" type="curve"/>
      <point x="444" y="424"/>
      <point x="461" y="423"/>
      <point x="475" y="423" type="curve" smooth="yes"/>
      <point x="558" y="423"/>
      <point x="612" y="457"/>
      <point x="631" y="525" type="curve" smooth="yes"/>
      <point x="639" y="553"/>
      <point x="642" y="573"/>
      <point x="642" y="585" type="curve" smooth="yes"/>
      <point x="642" y="643"/>
      <point x="609" y="668"/>
      <point x="547" y="668" type="curve" smooth="yes"/>
      <point x="474" y="668" type="line"/>
      <point x="474" y="670" type="line"/>
      <point x="507" y="707"/>
      <point x="538" y="727"/>
      <point x="561" y="727" type="curve" smooth="yes"/>
      <point x="573" y="727"/>
      <point x="582" y="722"/>
      <point x="590" y="714" type="curve"/>
    </contour>
    <contour>
      <point x="420.233" y="907.9" type="move" name="markAbove"/>
    </contour>
    <contour>
      <point x="420.233" y="-92.3176" type="move" name="markBelow"/>
    </contour>
  </outline>
</glyph>
<glyph name="arKaf.init" format="1">
  <advance width="638"/>
  <outline>
    <contour>
      <point x="198.622" y="678.317" type="line"/>
      <point x="145.098" y="712.378"/>
      <point x="109.415" y="730.22"/>
      <point x="88" y="742" type="curve"/>
      <point x="88" y="748" type="line"/>
      <point x="213" y="803"/>
      <point x="362" y="856"/>
      <point x="532" y="909" type="curve"/>
      <point x="563" y="964"/>
      <point x="592" y="1020"/>
      <point x="618" y="1075" type="curve"/>
      <point x="611" y="1082" type="line"/>
      <point x="387" y="1008"/>
      <point x="199" y="939"/>
      <point x="95" y="889" type="curve" smooth="yes"/>
      <point x="26" y="857"/>
      <point x="-5" y="808"/>
      <point x="-5" y="742" type="curve" smooth="yes"/>
      <point x="-5" y="703"/>
      <point x="2" y="661"/>
      <point x="15" y="616" type="curve"/>
      <point x="218" y="479"/>
      <point x="352" y="362"/>
      <point x="352" y="278" type="curve" smooth="yes"/>
      <point x="352" y="233"/>
      <point x="214" y="200"/>
      <point x="14" y="200" type="curve" smooth="yes"/>
      <point x="0" y="200" type="line" smooth="yes"/>
      <point x="-48" y="200"/>
      <point x="-70" y="148"/>
      <point x="-70" y="100" type="curve" smooth="yes"/>
      <point x="-70" y="52"/>
      <point x="-48" y="0"/>
      <point x="0" y="0" type="curve" smooth="yes"/>
      <point x="14" y="0" type="line" smooth="yes"/>
      <point x="230" y="0"/>
      <point x="363" y="44"/>
      <point x="405" y="130" type="curve" smooth="yes"/>
      <point x="434" y="191"/>
      <point x="453" y="252"/>
      <point x="453" y="311" type="curve" smooth="yes"/>
      <point x="453" y="427"/>
      <point x="410" y="500"/>
      <point x="260" y="630" type="curve"/>
    </contour>
    <contour>
      <point x="314.027" y="1009.12" type="move" name="gafAbove"/>
    </contour>
    <contour>
      <point x="215.04" y="1015" type="move" name="markAbove"/>
    </contour>
    <contour>
      <point x="180.917" y="-159.817" type="move" name="markBelow"/>
    </contour>
    <contour>
      <point x="295.253" y="1227.58" type="move" name="dotAbove"/>
    </contour>
    <contour>
      <point x="215.04" y="-151.069" type="move" name="dotBelow"/>
    </contour>
  </outline>
</glyph>
<glyph name="arKaf.medi" format="1">
  <advance width="770"/>
  <outline>
    <contour>
      <point x="283" y="671" type="line"/>
      <point x="211" y="692"/>
      <point x="150" y="712"/>
      <point x="97" y="731" type="curve"/>
      <point x="96" y="736" type="line"/>
      <point x="219" y="795"/>
      <point x="389" y="856"/>
      <point x="588" y="914" type="curve"/>
      <point x="615" y="960"/>
      <point x="643" y="1011"/>
      <point x="673" y="1075" type="curve"/>
      <point x="665" y="1083" type="line"/>
      <point x="438" y="1013"/>
      <point x="231" y="946"/>
      <point x="94" y="874" type="curve" smooth="yes"/>
      <point x="69" y="861"/>
      <point x="49" y="846"/>
      <point x="35" y="831" type="curve"/>
      <point x="9" y="800"/>
      <point x="-4" y="756"/>
      <point x="-4" y="701" type="curve" smooth="yes"/>
      <point x="-4" y="664"/>
      <point x="2" y="630"/>
      <point x="12" y="604" type="curve"/>
      <point x="187" y="444"/>
      <point x="285" y="326"/>
      <point x="295" y="254" type="curve"/>
      <point x="265" y="206"/>
      <point x="146" y="200"/>
      <point x="14" y="200" type="curve" smooth="yes"/>
      <point x="0" y="200" type="line" smooth="yes"/>
      <point x="-48" y="200"/>
      <point x="-70" y="148"/>
      <point x="-70" y="100" type="curve" smooth="yes"/>
      <point x="-70" y="52"/>
      <point x="-48" y="0"/>
      <point x="0" y="0" type="curve" smooth="yes"/>
      <point x="14" y="0" type="line" smooth="yes"/>
      <point x="161" y="0"/>
      <point x="257" y="22"/>
      <point x="306" y="66" type="curve"/>
      <point x="352" y="112"/>
      <point x="385" y="171"/>
      <point x="396" y="254" type="curve"/>
      <point x="399" y="254" type="line"/>
      <point x="550" y="71"/>
      <point x="564" y="0"/>
      <point x="756" y="0" type="curve" smooth="yes"/>
      <point x="770" y="0" type="line"/>
      <point x="770" y="200" type="line"/>
      <point x="756" y="200" type="line" smooth="yes"/>
      <point x="580" y="200"/>
      <point x="508" y="390"/>
      <point x="241" y="591" type="curve"/>
    </contour>
    <contour>
      <point x="365.227" y="1026.19" type="move" name="gafAbove"/>
    </contour>
    <contour>
      <point x="283" y="1207.1" type="move" name="markAbove"/>
    </contour>
    <contour>
      <point x="252.587" y="-112.157" type="move" name="markBelow"/>
    </contour>
    <contour>
      <point x="317.44" y="1101.28" type="move" name="dotAbove"/>
    </contour>
    <contour>
      <point x="293.547" y="-146.291" type="move" name="dotBelow"/>
    </contour>
  </outline>
</glyph>
<glyph name="arKashida" format="1">
  <advance width="400"/>
  <outline>
    <contour>
      <point x="0" y="200" type="line" smooth="yes"/>
      <point x="-48" y="200"/>
      <point x="-70" y="148"/>
      <point x="-70" y="100" type="curve" smooth="yes"/>
      <point x="-70" y="52"/>
      <point x="-48" y="0"/>
      <point x="0" y="0" type="curve" smooth="yes"/>
      <point x="400" y="0" type="line"/>
      <point x="400" y="200" type="line"/>
    </contour>
    <contour>
      <point x="196.267" y="527.843" type="move" name="markAbove"/>
    </contour>
    <contour>
      <point x="196.267" y="-124.104" type="move" name="markBelow"/>
    </contour>
  </outline>
</glyph>
<glyph name="arKeheh.fina" format="1">
  <advance width="1414"/>
  <outline>
    <contour>
      <point x="832.183" y="645.878" type="line"/>
      <point x="802.988" y="668.585"/>
      <point x="778.659" y="699.402"/>
      <point x="741" y="731" type="curve"/>
      <point x="740" y="736" type="line"/>
      <point x="863" y="795"/>
      <point x="1033" y="856"/>
      <point x="1232" y="914" type="curve"/>
      <point x="1259" y="960"/>
      <point x="1287" y="1011"/>
      <point x="1317" y="1075" type="curve"/>
      <point x="1309" y="1083" type="line"/>
      <point x="1082" y="1013"/>
      <point x="875" y="946"/>
      <point x="738" y="874" type="curve" smooth="yes"/>
      <point x="713" y="861"/>
      <point x="693" y="846"/>
      <point x="679" y="831" type="curve"/>
      <point x="653" y="800"/>
      <point x="640" y="756"/>
      <point x="640" y="701" type="curve" smooth="yes"/>
      <point x="640" y="664"/>
      <point x="646" y="630"/>
      <point x="656" y="604" type="curve"/>
      <point x="815" y="459"/>
      <point x="910" y="349"/>
      <point x="934" y="276" type="curve"/>
      <point x="841" y="221"/>
      <point x="666" y="192"/>
      <point x="522" y="192" type="curve" smooth="yes"/>
      <point x="319" y="192"/>
      <point x="185" y="261"/>
      <point x="185" y="413" type="curve" smooth="yes"/>
      <point x="185" y="448"/>
      <point x="190" y="481"/>
      <point x="195" y="513" type="curve"/>
      <point x="140" y="528" type="line"/>
      <point x="111" y="441"/>
      <point x="100" y="367"/>
      <point x="100" y="304" type="curve" smooth="yes"/>
      <point x="100" y="78"/>
      <point x="252" y="-13"/>
      <point x="500" y="-13" type="curve" smooth="yes"/>
      <point x="689" y="-13"/>
      <point x="892" y="38"/>
      <point x="970" y="105" type="curve"/>
      <point x="1004" y="152"/>
      <point x="1025" y="203"/>
      <point x="1036" y="260" type="curve"/>
      <point x="1041" y="260" type="line"/>
      <point x="1177" y="90"/>
      <point x="1208" y="0"/>
      <point x="1400" y="0" type="curve" smooth="yes"/>
      <point x="1414" y="0" type="line"/>
      <point x="1414" y="200" type="line"/>
      <point x="1400" y="200" type="line" smooth="yes"/>
      <point x="1224" y="200"/>
      <point x="1152" y="390"/>
      <point x="885" y="591" type="curve"/>
    </contour>
    <contour>
      <point x="1013.76" y="1036.43" type="move" name="gafAbove"/>
    </contour>
    <contour>
      <point x="366.933" y="703.629" type="move" name="markAbove"/>
    </contour>
    <contour>
      <point x="351.573" y="-134.344" type="move" name="markBelow"/>
    </contour>
    <contour>
      <point x="955.733" y="1205.39" type="move" name="dotAbove"/>
    </contour>
    <contour>
      <point x="525.653" y="-151.069" type="move" name="dotBelow"/>
    </contour>
  </outline>
</glyph>
<glyph name="arLam.init" format="1">
  <advance width="407"/>
  <outline>
    <contour>
      <point x="245" y="1029" type="line"/>
      <point x="210" y="1003"/>
      <point x="186" y="978"/>
      <point x="167" y="954" type="curve" smooth="yes"/>
      <point x="148" y="930"/>
      <point x="140" y="898"/>
      <point x="140" y="861" type="curve" smooth="yes"/>
      <point x="140" y="811"/>
      <point x="173" y="589"/>
      <point x="173" y="340" type="curve" smooth="yes"/>
      <point x="173" y="286"/>
      <point x="173" y="258"/>
      <point x="156" y="241" type="curve" smooth="yes"/>
      <point x="127" y="212"/>
      <point x="78" y="200"/>
      <point x="14" y="200" type="curve" smooth="yes"/>
      <point x="0" y="200" type="line" smooth="yes"/>
      <point x="-48" y="200"/>
      <point x="-70" y="148"/>
      <point x="-70" y="100" type="curve" smooth="yes"/>
      <point x="-70" y="52"/>
      <point x="-48" y="0"/>
      <point x="0" y="0" type="curve" smooth="yes"/>
      <point x="14" y="0" type="line" smooth="yes"/>
      <point x="104" y="0"/>
      <point x="158" y="37"/>
      <point x="197" y="90" type="curve"/>
      <point x="218" y="122"/>
      <point x="234" y="158"/>
      <point x="247" y="196" type="curve" smooth="yes"/>
      <point x="269" y="260"/>
      <point x="284" y="328"/>
      <point x="284" y="417" type="curve" smooth="yes"/>
      <point x="284" y="515"/>
      <point x="282" y="609"/>
      <point x="278" y="686" type="curve"/>
      <point x="367" y="754" type="line"/>
      <point x="295" y="874"/>
      <point x="257" y="955"/>
      <point x="257" y="1021" type="curve"/>
    </contour>
    <contour>
      <point x="202.24" y="1092.75" type="move" name="smallVAbove"/>
    </contour>
    <contour>
      <point x="212.48" y="1132" type="move" name="markAbove"/>
    </contour>
    <contour>
      <point x="110.08" y="-23.4107" type="move" name="markBelow"/>
    </contour>
    <contour>
      <point x="93.0133" y="-183.837" type="move" name="dotBelow"/>
    </contour>
    <contour>
      <point x="195" y="1186.62" type="move" name="dotAbove"/>
    </contour>
  </outline>
</glyph>
<glyph name="arLam.medi" format="1">
  <advance width="430"/>
  <outline>
    <contour>
      <point x="430" y="200" type="line"/>
      <point x="410" y="200" type="line" smooth="yes"/>
      <point x="305" y="200"/>
      <point x="280" y="241"/>
      <point x="280" y="336" type="curve" smooth="yes"/>
      <point x="280" y="382"/>
      <point x="282" y="471"/>
      <point x="282" y="576" type="curve" smooth="yes"/>
      <point x="282" y="716"/>
      <point x="281" y="882"/>
      <point x="265" y="1024" type="curve"/>
      <point x="252" y="1030" type="line"/>
      <point x="214" y="1000"/>
      <point x="177" y="964"/>
      <point x="139" y="926" type="curve"/>
      <point x="158" y="738"/>
      <point x="169" y="514"/>
      <point x="169" y="334" type="curve" smooth="yes"/>
      <point x="169" y="249"/>
      <point x="124" y="200"/>
      <point x="22" y="200" type="curve" smooth="yes"/>
      <point x="0" y="200" type="line" smooth="yes"/>
      <point x="-48" y="200"/>
      <point x="-70" y="148"/>
      <point x="-70" y="100" type="curve" smooth="yes"/>
      <point x="-70" y="52"/>
      <point x="-48" y="0"/>
      <point x="0" y="0" type="curve" smooth="yes"/>
      <point x="14" y="0" type="line" smooth="yes"/>
      <point x="98" y="0"/>
      <point x="159" y="40"/>
      <point x="203" y="112" type="curve"/>
      <point x="207" y="112" type="line"/>
      <point x="251" y="27"/>
      <point x="326" y="0"/>
      <point x="416" y="0" type="curve" smooth="yes"/>
      <point x="430" y="0" type="line"/>
    </contour>
    <contour>
      <point x="189.44" y="1051.36" type="move" name="smallVAbove"/>
    </contour>
    <contour>
      <point x="209.067" y="1080.8" type="move" name="markAbove"/>
    </contour>
    <contour>
      <point x="193" y="-52" type="move" name="markBelow"/>
    </contour>
    <contour>
      <point x="198.827" y="-173.597" type="move" name="dotBelow"/>
    </contour>
    <contour>
      <point x="212.48" y="1150.78" type="move" name="dotAbove"/>
    </contour>
  </outline>
</glyph>
<glyph name="arMeem.fina" format="1">
  <advance width="887"/>
  <outline>
    <contour>
      <point x="442" y="593" type="line"/>
      <point x="397" y="527"/>
      <point x="272" y="428"/>
      <point x="189" y="344" type="curve" smooth="yes"/>
      <point x="128" y="282"/>
      <point x="92" y="209"/>
      <point x="92" y="67" type="curve" smooth="yes"/>
      <point x="92" y="-139"/>
      <point x="262" y="-432"/>
      <point x="308" y="-670" type="curve"/>
      <point x="333" y="-670" type="line"/>
      <point x="350" y="-603"/>
      <point x="361" y="-540"/>
      <point x="361" y="-489" type="curve" smooth="yes"/>
      <point x="361" y="-399"/>
      <point x="201" y="-3"/>
      <point x="201" y="113" type="curve" smooth="yes"/>
      <point x="201" y="161"/>
      <point x="226" y="188"/>
      <point x="273" y="236" type="curve"/>
      <point x="276" y="236" type="line"/>
      <point x="287" y="59"/>
      <point x="417" y="-79"/>
      <point x="541" y="-79" type="curve" smooth="yes"/>
      <point x="616" y="-79"/>
      <point x="684" y="-16"/>
      <point x="700" y="72" type="curve"/>
      <point x="705" y="72" type="line"/>
      <point x="738" y="26"/>
      <point x="792" y="0"/>
      <point x="873" y="0" type="curve" smooth="yes"/>
      <point x="887" y="0" type="line"/>
      <point x="887" y="200" type="line"/>
      <point x="873" y="200" type="line" smooth="yes"/>
      <point x="803" y="200"/>
      <point x="774" y="234"/>
      <point x="736" y="278" type="curve"/>
      <point x="632" y="415"/>
      <point x="544" y="511"/>
      <point x="458" y="593" type="curve"/>
    </contour>
    <contour>
      <point x="441" y="385" type="curve"/>
      <point x="559" y="276"/>
      <point x="626" y="194"/>
      <point x="626" y="153" type="curve" smooth="yes"/>
      <point x="626" y="139"/>
      <point x="602" y="125"/>
      <point x="565" y="125" type="curve" smooth="yes"/>
      <point x="469" y="125"/>
      <point x="381" y="218"/>
      <point x="381" y="304" type="curve" smooth="yes"/>
      <point x="381" y="331"/>
      <point x="405" y="357"/>
    </contour>
    <contour>
      <point x="276" y="817.549" type="move" name="markAbove"/>
    </contour>
    <contour>
      <point x="283.307" y="-703.091" type="move" name="markBelow"/>
    </contour>
    <contour>
      <point x="440.732" y="769.195" type="move" name="dotAbove"/>
    </contour>
    <contour>
      <point x="539.307" y="-205.683" type="move" name="dotBelow"/>
    </contour>
  </outline>
</glyph>
<glyph name="arMeem.init" format="1">
  <advance width="688"/>
  <outline>
    <contour>
      <point x="180" y="118" type="line"/>
      <point x="270" y="47"/>
      <point x="368" y="9"/>
      <point x="444" y="9" type="curve" smooth="yes"/>
      <point x="577" y="9"/>
      <point x="613" y="185"/>
      <point x="613" y="199" type="curve" smooth="yes"/>
      <point x="613" y="310"/>
      <point x="557" y="565"/>
      <point x="390" y="565" type="curve" smooth="yes"/>
      <point x="345" y="565"/>
      <point x="301" y="546"/>
      <point x="258" y="506" type="curve" smooth="yes"/>
      <point x="160" y="415"/>
      <point x="178" y="275"/>
      <point x="100" y="226" type="curve" smooth="yes"/>
      <point x="74" y="210"/>
      <point x="45" y="200"/>
      <point x="14" y="200" type="curve" smooth="yes"/>
      <point x="0" y="200" type="line" smooth="yes"/>
      <point x="-48" y="200"/>
      <point x="-70" y="148"/>
      <point x="-70" y="100" type="curve" smooth="yes"/>
      <point x="-70" y="48"/>
      <point x="-47" y="0"/>
      <point x="-1" y="0" type="curve" smooth="yes"/>
      <point x="12" y="0" type="line" smooth="yes"/>
      <point x="93" y="0"/>
      <point x="149" y="44"/>
      <point x="177" y="118" type="curve"/>
    </contour>
    <contour>
      <point x="239" y="307" type="curve"/>
      <point x="266" y="361"/>
      <point x="303" y="393"/>
      <point x="356" y="393" type="curve" smooth="yes"/>
      <point x="423" y="393"/>
      <point x="483" y="321"/>
      <point x="504" y="209" type="curve"/>
      <point x="504" y="203"/>
      <point x="492" y="200"/>
      <point x="473" y="200" type="curve" smooth="yes"/>
      <point x="395" y="200"/>
      <point x="317" y="238"/>
    </contour>
    <contour>
      <point x="223.573" y="781.709" type="move" name="markAbove"/>
    </contour>
    <contour>
      <point x="232.107" y="-157.439" type="move" name="markBelow"/>
    </contour>
    <contour>
      <point x="361.813" y="713.443" type="move" name="dotAbove"/>
    </contour>
    <contour>
      <point x="333.524" y="-157.439" type="move" name="dotBelow"/>
    </contour>
  </outline>
</glyph>
<glyph name="arMeem.isol" format="1">
  <advance width="749"/>
  <outline>
    <contour>
      <point x="183" y="249" type="line"/>
      <point x="146" y="204"/>
      <point x="123" y="160"/>
      <point x="110" y="121" type="curve" smooth="yes"/>
      <point x="93" y="69"/>
      <point x="85" y="26"/>
      <point x="85" y="-10" type="curve" smooth="yes"/>
      <point x="85" y="-166"/>
      <point x="231" y="-465"/>
      <point x="261" y="-669" type="curve"/>
      <point x="284" y="-671" type="line"/>
      <point x="306" y="-588"/>
      <point x="317" y="-527"/>
      <point x="317" y="-484" type="curve" smooth="yes"/>
      <point x="317" y="-405"/>
      <point x="203" y="-108"/>
      <point x="188" y="62" type="curve"/>
      <point x="214" y="89"/>
      <point x="261" y="102"/>
      <point x="316" y="102" type="curve" smooth="yes"/>
      <point x="395" y="102"/>
      <point x="476" y="94"/>
      <point x="607" y="78" type="curve"/>
      <point x="645" y="144"/>
      <point x="669" y="202"/>
      <point x="669" y="246" type="curve" smooth="yes"/>
      <point x="669" y="302"/>
      <point x="644" y="368"/>
      <point x="606" y="432" type="curve" smooth="yes"/>
      <point x="541" y="538"/>
      <point x="466" y="600"/>
      <point x="375" y="600" type="curve" smooth="yes"/>
      <point x="270" y="600"/>
      <point x="212" y="513"/>
      <point x="166" y="380" type="curve"/>
    </contour>
    <contour>
      <point x="253" y="293" type="line"/>
      <point x="270" y="333" type="line"/>
      <point x="274" y="359"/>
      <point x="275" y="385"/>
      <point x="275" y="402" type="curve" smooth="yes"/>
      <point x="275" y="416" type="line"/>
      <point x="289" y="422"/>
      <point x="307" y="425"/>
      <point x="327" y="425" type="curve" smooth="yes"/>
      <point x="398" y="425"/>
      <point x="464" y="378"/>
      <point x="526" y="295" type="curve"/>
      <point x="524" y="288" type="line"/>
      <point x="460" y="299"/>
      <point x="400" y="306"/>
      <point x="352" y="306" type="curve" smooth="yes"/>
      <point x="317" y="306"/>
      <point x="285" y="301"/>
      <point x="256" y="290" type="curve"/>
    </contour>
    <contour>
      <point x="269.653" y="785.123" type="move" name="markAbove"/>
    </contour>
    <contour>
      <point x="240.64" y="-701.384" type="move" name="markBelow"/>
    </contour>
    <contour>
      <point x="364.329" y="737.744" type="move" name="dotAbove"/>
    </contour>
    <contour>
      <point x="358.207" y="-43.5122" type="move" name="dotBelow"/>
    </contour>
  </outline>
</glyph>
<glyph name="arNoon.fina" format="1">
  <advance width="965"/>
  <outline>
    <contour>
      <point x="693" y="480" type="line"/>
      <point x="657" y="431"/>
      <point x="626" y="382"/>
      <point x="598" y="333" type="curve"/>
      <point x="675" y="202"/>
      <point x="716" y="99"/>
      <point x="723" y="26" type="curve"/>
      <point x="702" y="-38"/>
      <point x="553" y="-136"/>
      <point x="415" y="-136" type="curve" smooth="yes"/>
      <point x="277" y="-136"/>
      <point x="178" y="-65"/>
      <point x="178" y="90" type="curve" smooth="yes"/>
      <point x="178" y="142"/>
      <point x="192" y="198"/>
      <point x="224" y="263" type="curve"/>
      <point x="170" y="290" type="line"/>
      <point x="119" y="194"/>
      <point x="90" y="98"/>
      <point x="90" y="7" type="curve" smooth="yes"/>
      <point x="90" y="-222"/>
      <point x="213" y="-336"/>
      <point x="395" y="-336" type="curve" smooth="yes"/>
      <point x="537" y="-336"/>
      <point x="651" y="-282"/>
      <point x="742" y="-178" type="curve"/>
      <point x="776" y="-115"/>
      <point x="799" y="-43"/>
      <point x="806" y="36" type="curve"/>
      <point x="809" y="36" type="line"/>
      <point x="843" y="12"/>
      <point x="890" y="0"/>
      <point x="951" y="0" type="curve" smooth="yes"/>
      <point x="965" y="0" type="line"/>
      <point x="965" y="200" type="line"/>
      <point x="951" y="200" type="line" smooth="yes"/>
      <point x="906" y="200"/>
      <point x="834" y="218"/>
      <point x="813" y="253" type="curve" smooth="yes"/>
      <point x="777" y="316"/>
      <point x="750" y="397"/>
      <point x="706" y="480" type="curve"/>
    </contour>
    <contour>
      <point x="648.533" y="-321.736" type="move" name="ringBelow"/>
    </contour>
    <contour>
      <point x="415" y="606.691" type="move" name="dotAbove"/>
    </contour>
    <contour>
      <point x="363" y="595.683" type="move" name="markAbove"/>
    </contour>
    <contour>
      <point x="387.413" y="-418.077" type="move" name="markBelow"/>
    </contour>
    <contour>
      <point x="443.733" y="-471.923" type="move" name="dotBelow"/>
    </contour>
  </outline>
</glyph>
<glyph name="arQaf.isol" format="1">
  <advance width="1083"/>
  <outline>
    <contour>
      <point x="905" y="138" type="curve"/>
      <point x="909" y="130"/>
      <point x="911" y="122"/>
      <point x="911" y="112" type="curve"/>
      <point x="877" y="72"/>
      <point x="826" y="35"/>
      <point x="765" y="1" type="curve" smooth="yes"/>
      <point x="678" y="-48"/>
      <point x="589" y="-73"/>
      <point x="501" y="-73" type="curve" smooth="yes"/>
      <point x="342" y="-73"/>
      <point x="194" y="11"/>
      <point x="193" y="231" type="curve"/>
      <point x="193" y="289"/>
      <point x="204" y="350"/>
      <point x="223" y="414" type="curve"/>
      <point x="156" y="434" type="line"/>
      <point x="123" y="334"/>
      <point x="100" y="232"/>
      <point x="100" y="121" type="curve" smooth="yes"/>
      <point x="100" y="-52"/>
      <point x="191" y="-277"/>
      <point x="480" y="-277" type="curve" smooth="yes"/>
      <point x="608" y="-277"/>
      <point x="720" y="-233"/>
      <point x="821" y="-161" type="curve" smooth="yes"/>
      <point x="888" y="-113"/>
      <point x="932" y="-63"/>
      <point x="958" y="-19" type="curve"/>
      <point x="984" y="39"/>
      <point x="998" y="110"/>
      <point x="998" y="197" type="curve" smooth="yes"/>
      <point x="998" y="362"/>
      <point x="913" y="647"/>
      <point x="760" y="647" type="curve" smooth="yes"/>
      <point x="657" y="647"/>
      <point x="518" y="521"/>
      <point x="518" y="336" type="curve" smooth="yes"/>
      <point x="518" y="260"/>
      <point x="547" y="209"/>
      <point x="592" y="173" type="curve"/>
      <point x="650" y="133"/>
      <point x="712" y="123"/>
      <point x="773" y="123" type="curve" smooth="yes"/>
      <point x="812" y="123"/>
      <point x="856" y="128"/>
    </contour>
    <contour>
      <point x="878" y="310" type="curve"/>
      <point x="855" y="306"/>
      <point x="830" y="304"/>
      <point x="804" y="304" type="curve" smooth="yes"/>
      <point x="676" y="304"/>
      <point x="607" y="344"/>
      <point x="607" y="392" type="curve" smooth="yes"/>
      <point x="607" y="418"/>
      <point x="643" y="473"/>
      <point x="719" y="473" type="curve" smooth="yes"/>
      <point x="790" y="473"/>
      <point x="842" y="411"/>
    </contour>
    <contour>
      <point x="269.653" y="575.203" type="move" name="markAbove"/>
    </contour>
    <contour>
      <point x="688.355" y="832.296" type="move" name="dotAbove"/>
    </contour>
    <contour>
      <point x="327.68" y="-339.571" type="move" name="markBelow"/>
    </contour>
    <contour>
      <point x="685.59" y="-413.802" type="move" name="dotBelow"/>
    </contour>
  </outline>
</glyph>
<glyph name="arReh.fina" format="1">
  <advance width="656"/>
  <outline>
    <contour>
      <point x="656" y="200" type="line"/>
      <point x="642" y="200" type="line" smooth="yes"/>
      <point x="530" y="200"/>
      <point x="476" y="280"/>
      <point x="424" y="396" type="curve"/>
      <point x="409" y="396" type="line"/>
      <point x="384" y="352"/>
      <point x="361" y="302"/>
      <point x="338" y="248" type="curve"/>
      <point x="372" y="174"/>
      <point x="410" y="113"/>
      <point x="449" y="63" type="curve"/>
      <point x="437" y="2"/>
      <point x="398" y="-68"/>
      <point x="332" y="-128" type="curve" smooth="yes"/>
      <point x="270" y="-186"/>
      <point x="198" y="-220"/>
      <point x="114" y="-220" type="curve" smooth="yes"/>
      <point x="92" y="-220"/>
      <point x="62" y="-216"/>
      <point x="24" y="-203" type="curve"/>
      <point x="2" y="-253" type="line"/>
      <point x="108" y="-323"/>
      <point x="194" y="-352"/>
      <point x="268" y="-352" type="curve" smooth="yes"/>
      <point x="350" y="-352"/>
      <point x="415" y="-294"/>
      <point x="470" y="-207" type="curve" smooth="yes"/>
      <point x="505" y="-150"/>
      <point x="535" y="-84"/>
      <point x="535" y="19" type="curve"/>
      <point x="566" y="9"/>
      <point x="598" y="0"/>
      <point x="639" y="0" type="curve" smooth="yes"/>
      <point x="656" y="0" type="line"/>
    </contour>
    <contour>
      <point x="352.242" y="581.899" type="move" name="dotAbove"/>
    </contour>
    <contour>
      <point x="291.84" y="638" type="move" name="markAbove"/>
    </contour>
    <contour>
      <point x="261.12" y="-438.557" type="move" name="smallVBelow"/>
    </contour>
    <contour>
      <point x="245.349" y="-454.36" type="move" name="markBelow"/>
    </contour>
    <contour>
      <point x="262.827" y="-451.784" type="move" name="dotBelow"/>
    </contour>
    <contour>
      <point x="291.84" y="565.731" type="move" name="hamzaAbove"/>
    </contour>
  </outline>
</glyph>
<glyph name="arSad.fina" format="1">
  <advance width="1511"/>
  <outline>
    <contour>
      <point x="770" y="231" type="line"/>
      <point x="751" y="324"/>
      <point x="726" y="406"/>
      <point x="693" y="477" type="curve"/>
      <point x="681" y="481" type="line"/>
      <point x="646" y="437"/>
      <point x="611" y="386"/>
      <point x="576" y="328" type="curve"/>
      <point x="630" y="233"/>
      <point x="668" y="135"/>
      <point x="682" y="26" type="curve"/>
      <point x="664" y="-5"/>
      <point x="631" y="-41"/>
      <point x="575" y="-77" type="curve" smooth="yes"/>
      <point x="524" y="-110"/>
      <point x="463" y="-125"/>
      <point x="398" y="-125" type="curve" smooth="yes"/>
      <point x="338" y="-125"/>
      <point x="281" y="-103"/>
      <point x="232" y="-52" type="curve"/>
      <point x="194" y="-7"/>
      <point x="178" y="46"/>
      <point x="178" y="102" type="curve" smooth="yes"/>
      <point x="178" y="160"/>
      <point x="196" y="221"/>
      <point x="223" y="284" type="curve"/>
      <point x="168" y="309" type="line"/>
      <point x="122" y="226"/>
      <point x="88" y="129"/>
      <point x="88" y="13" type="curve" smooth="yes"/>
      <point x="88" y="-216"/>
      <point x="228" y="-325"/>
      <point x="380" y="-325" type="curve" smooth="yes"/>
      <point x="485" y="-325"/>
      <point x="578" y="-286"/>
      <point x="657" y="-211" type="curve" smooth="yes"/>
      <point x="705" y="-166"/>
      <point x="741" y="-94"/>
      <point x="767" y="12" type="curve"/>
      <point x="818" y="5"/>
      <point x="870" y="0"/>
      <point x="928" y="0" type="curve" smooth="yes"/>
      <point x="1013" y="0"/>
      <point x="1093" y="10"/>
      <point x="1158" y="28" type="curve"/>
      <point x="1274" y="7"/>
      <point x="1386" y="0"/>
      <point x="1497" y="0" type="curve" smooth="yes"/>
      <point x="1511" y="0" type="line"/>
      <point x="1511" y="200" type="line"/>
      <point x="1385" y="200" type="line"/>
      <point x="1408" y="248"/>
      <point x="1422" y="303"/>
      <point x="1422" y="353" type="curve" smooth="yes"/>
      <point x="1422" y="479"/>
      <point x="1324" y="579"/>
      <point x="1205" y="579" type="curve" smooth="yes"/>
      <point x="1055" y="579"/>
      <point x="913" y="450"/>
      <point x="774" y="231" type="curve"/>
    </contour>
    <contour>
      <point x="850" y="210" type="curve"/>
      <point x="948" y="320"/>
      <point x="1048" y="404"/>
      <point x="1154" y="404" type="curve" smooth="yes"/>
      <point x="1260" y="404"/>
      <point x="1315" y="318"/>
      <point x="1315" y="285" type="curve" smooth="yes"/>
      <point x="1315" y="273"/>
      <point x="1303" y="265"/>
      <point x="1287" y="256" type="curve"/>
      <point x="1204" y="218"/>
      <point x="1104" y="200"/>
      <point x="989" y="200" type="curve" smooth="yes"/>
      <point x="939" y="200"/>
      <point x="892" y="204"/>
    </contour>
    <contour>
      <point x="980.834" y="752.442" type="move" name="dotAbove"/>
    </contour>
    <contour>
      <point x="341.333" y="593.976" type="move" name="markAbove"/>
    </contour>
    <contour>
      <point x="372.053" y="-325" type="move" name="markBelow"/>
    </contour>
    <contour>
      <point x="1000" y="-165.57" type="move" name="dotBelow"/>
    </contour>
  </outline>
</glyph>
<glyph name="arTah.init" format="1">
  <advance width="936"/>
  <outline>
    <contour>
      <point x="222" y="338" type="line"/>
      <point x="248" y="402"/>
      <point x="259" y="472"/>
      <point x="259" y="548" type="curve" smooth="yes"/>
      <point x="259" y="593"/>
      <point x="257" y="669"/>
      <point x="255" y="751" type="curve"/>
      <point x="342" y="817" type="line"/>
      <point x="254" y="955"/>
      <point x="231" y="1024"/>
      <point x="231" y="1087" type="curve"/>
      <point x="219" y="1094" type="line"/>
      <point x="141" y="1031"/>
      <point x="117" y="993"/>
      <point x="117" y="944" type="curve" smooth="yes"/>
      <point x="117" y="899"/>
      <point x="128" y="853"/>
      <point x="132" y="808" type="curve" smooth="yes"/>
      <point x="141" y="689"/>
      <point x="147" y="587"/>
      <point x="147" y="487" type="curve" smooth="yes"/>
      <point x="147" y="390"/>
      <point x="145" y="310"/>
      <point x="135" y="244" type="curve"/>
      <point x="104" y="200" type="line"/>
      <point x="0" y="200" type="line" smooth="yes"/>
      <point x="-48" y="200"/>
      <point x="-70" y="148"/>
      <point x="-70" y="100" type="curve" smooth="yes"/>
      <point x="-70" y="52"/>
      <point x="-48" y="0"/>
      <point x="0" y="0" type="curve" smooth="yes"/>
      <point x="14" y="0" type="line"/>
      <point x="486" y="1"/>
      <point x="684" y="42"/>
      <point x="778" y="126" type="curve"/>
      <point x="827" y="183"/>
      <point x="859" y="288"/>
      <point x="859" y="344" type="curve" smooth="yes"/>
      <point x="859" y="477"/>
      <point x="774" y="591"/>
      <point x="630" y="591" type="curve" smooth="yes"/>
      <point x="495" y="591"/>
      <point x="360" y="490"/>
      <point x="227" y="336" type="curve"/>
    </contour>
    <contour>
      <point x="213" y="200" type="curve"/>
      <point x="357" y="344"/>
      <point x="479" y="409"/>
      <point x="583" y="409" type="curve" smooth="yes"/>
      <point x="668" y="409"/>
      <point x="730" y="346"/>
      <point x="744" y="295" type="curve"/>
      <point x="661" y="229"/>
      <point x="477" y="200"/>
    </contour>
    <contour>
      <point x="558.412" y="749.448" type="move" name="dotAbove"/>
    </contour>
    <contour>
      <point x="650.345" y="671.653" type="move" name="markAbove"/>
    </contour>
    <contour>
      <point x="438.642" y="-147.544" type="move" name="markBelow"/>
    </contour>
    <contour>
      <point x="496.296" y="-148.845" type="move" name="dotBelow"/>
    </contour>
  </outline>
</glyph>
<glyph name="arYeh.isol2" format="1">
  <advance width="1683"/>
  <outline>
    <contour>
      <point x="748" y="372" type="line"/>
      <point x="781" y="446"/>
      <point x="799" y="512"/>
      <point x="799" y="567" type="curve" smooth="yes"/>
      <point x="799" y="662"/>
      <point x="762" y="749"/>
      <point x="703" y="749" type="curve" smooth="yes"/>
      <point x="661" y="749"/>
      <point x="623" y="711"/>
      <point x="594" y="664" type="curve" smooth="yes"/>
      <point x="494" y="505"/>
      <point x="310" y="553"/>
      <point x="167" y="333" type="curve" smooth="yes"/>
      <point x="126" y="269"/>
      <point x="103" y="200"/>
      <point x="103" y="158" type="curve" smooth="yes"/>
      <point x="103" y="14"/>
      <point x="343" y="-9"/>
      <point x="604" y="-9" type="curve" smooth="yes"/>
      <point x="881" y="-9"/>
      <point x="1171" y="16"/>
      <point x="1456" y="30" type="curve"/>
      <point x="1520" y="88"/>
      <point x="1582" y="150"/>
      <point x="1640" y="208" type="curve"/>
      <point x="1634" y="223" type="line"/>
      <point x="1326" y="219"/>
      <point x="1056" y="191"/>
      <point x="725" y="191" type="curve" smooth="yes"/>
      <point x="496" y="191"/>
      <point x="249" y="226"/>
      <point x="249" y="283" type="curve" smooth="yes"/>
      <point x="249" y="306"/>
      <point x="321" y="333"/>
      <point x="414" y="374" type="curve" smooth="yes"/>
      <point x="594" y="454"/>
      <point x="580" y="549"/>
      <point x="634" y="549" type="curve" smooth="yes"/>
      <point x="670" y="549"/>
      <point x="697" y="470"/>
      <point x="728" y="374" type="curve"/>
    </contour>
    <contour>
      <point x="580.267" y="882.147" type="move" name="markAbove"/>
    </contour>
    <contour>
      <point x="651.947" y="951" type="move" name="smallVAbove"/>
    </contour>
    <contour>
      <point x="631.467" y="902.627" type="move" name="hamzaAbove"/>
    </contour>
    <contour>
      <point x="837.973" y="-178.717" type="move" name="dotBelow"/>
    </contour>
    <contour>
      <point x="709.973" y="-131.613" type="move" name="markBelow"/>
    </contour>
    <contour>
      <point x="703" y="886.243" type="move" name="dotAbove"/>
    </contour>
  </outline>
</glyph>
<glyph name="di1Dot.above" format="1">
  <advance width="435"/>
  <outline>
    <contour>
      <point x="-134.918" y="50.1113" type="line"/>
      <point x="-80.9177" y="12.1113"/>
      <point x="-30.9177" y="-24.8887"/>
      <point x="10.0823" y="-60.8887" type="curve"/>
      <point x="48.0823" y="-27.8887"/>
      <point x="78.0823" y="13.1113"/>
      <point x="100.082" y="62.1113" type="curve"/>
      <point x="57.0823" y="104.111"/>
      <point x="10.0823" y="143.111"/>
      <point x="-42.9177" y="179.111" type="curve"/>
    </contour>
    <contour>
      <point x="-6.82667" y="262.627" type="move" name="markAboveDot"/>
    </contour>
    <contour>
      <point x="2.52591" y="-7.57774" type="move" name="_dotAbove"/>
    </contour>
  </outline>
</glyph>
<glyph name="di2VDot.above" format="1">
  <advance width="451"/>
  <outline>
    <contour>
      <point x="-136.049" y="60.122" type="line"/>
      <point x="-85.0488" y="25.122"/>
      <point x="-37.0488" y="-10.878"/>
      <point x="1.95122" y="-44.878" type="curve"/>
      <point x="37.9512" y="-13.878"/>
      <point x="65.9512" y="26.122"/>
      <point x="86.9512" y="72.122" type="curve"/>
      <point x="46.9512" y="111.122"/>
      <point x="1.95122" y="149.122"/>
      <point x="-49.0488" y="183.122" type="curve"/>
    </contour>
    <contour>
      <point x="-166.049" y="290.122" type="line"/>
      <point x="-115.049" y="255.122"/>
      <point x="-67.0488" y="219.122"/>
      <point x="-28.0488" y="185.122" type="curve"/>
      <point x="7.95122" y="216.122"/>
      <point x="35.9512" y="256.122"/>
      <point x="56.9512" y="302.122" type="curve"/>
      <point x="16.9512" y="341.122"/>
      <point x="-28.0488" y="379.122"/>
      <point x="-79.0488" y="413.122" type="curve"/>
    </contour>
    <contour>
      <point x="-39.5489" y="492" type="move" name="markAboveDot"/>
    </contour>
    <contour>
      <point x="0" y="4" type="move" name="_dotAbove"/>
    </contour>
  </outline>
</glyph>
<glyph name="di3IDot.above" format="1">
  <advance width="451"/>
  <outline>
    <contour>
      <point x="-32.122" y="268.756" type="line"/>
      <point x="7.87805" y="229.756"/>
      <point x="46.878" y="190.756"/>
      <point x="84.878" y="149.756" type="curve"/>
      <point x="123.878" y="179.756"/>
      <point x="156.878" y="213.756"/>
      <point x="182.878" y="251.756" type="curve"/>
      <point x="152.878" y="292.756"/>
      <point x="114.878" y="334.756"/>
      <point x="68.878" y="375.756" type="curve"/>
    </contour>
    <contour>
      <point x="-243.122" y="259.756" type="line"/>
      <point x="-203.122" y="220.756"/>
      <point x="-164.122" y="181.756"/>
      <point x="-126.122" y="140.756" type="curve"/>
      <point x="-87.122" y="170.756"/>
      <point x="-54.122" y="204.756"/>
      <point x="-28.122" y="242.756" type="curve"/>
      <point x="-58.122" y="283.756"/>
      <point x="-96.122" y="325.756"/>
      <point x="-142.122" y="366.756" type="curve"/>
    </contour>
    <contour>
      <point x="-112.122" y="48.7561" type="line"/>
      <point x="-72.122" y="9.7561"/>
      <point x="-33.122" y="-29.2439"/>
      <point x="4.87805" y="-70.2439" type="curve"/>
      <point x="43.878" y="-40.2439"/>
      <point x="76.878" y="-6.2439"/>
      <point x="102.878" y="31.7561" type="curve"/>
      <point x="72.878" y="72.7561"/>
      <point x="34.878" y="114.756"/>
      <point x="-11.122" y="155.756" type="curve"/>
    </contour>
  </outline>
</glyph>
<glyph name="diDammatan" format="1">
  <advance width="0"/>
  <outline>
    <contour>
      <point x="194.134" y="1259.62" type="line"/>
      <point x="155.134" y="1264.62" type="line"/>
      <point x="161.134" y="1287.62"/>
      <point x="164.134" y="1310.62"/>
      <point x="164.134" y="1335.62" type="curve" smooth="yes"/>
      <point x="164.134" y="1420.62"/>
      <point x="119.134" y="1456.62"/>
      <point x="78.1333" y="1456.62" type="curve" smooth="yes"/>
      <point x="44.1333" y="1456.62"/>
      <point x="10.8463" y="1441.97"/>
      <point x="-18.8667" y="1417.62" type="curve" smooth="yes"/>
      <point x="-50.1578" y="1391.97"/>
      <point x="-74.8667" y="1346.62"/>
      <point x="-74.8667" y="1299.62" type="curve" smooth="yes"/>
      <point x="-74.8667" y="1239.62"/>
      <point x="-26.8667" y="1209.62"/>
      <point x="34.1333" y="1190.62" type="curve"/>
      <point x="34.1333" y="1186.62" type="line"/>
      <point x="2.13333" y="1162.62"/>
      <point x="-45.8667" y="1150.62"/>
      <point x="-103.866" y="1142.62" type="curve"/>
      <point x="-100.866" y="1162.62"/>
      <point x="-100.866" y="1190.62"/>
      <point x="-100.866" y="1208.62" type="curve" smooth="yes"/>
      <point x="-100.866" y="1269.62"/>
      <point x="-117.866" y="1297.62"/>
      <point x="-151.866" y="1297.62" type="curve" smooth="yes"/>
      <point x="-166.866" y="1297.62"/>
      <point x="-204.866" y="1283.62"/>
      <point x="-251.866" y="1259.62" type="curve"/>
      <point x="-271.866" y="1155.62" type="line"/>
      <point x="-264.866" y="1149.62" type="line"/>
      <point x="-223.866" y="1169.62"/>
      <point x="-189.866" y="1182.62"/>
      <point x="-173.866" y="1182.62" type="curve" smooth="yes"/>
      <point x="-160.866" y="1182.62"/>
      <point x="-152.866" y="1171.62"/>
      <point x="-152.866" y="1144.62" type="curve" smooth="yes"/>
      <point x="-152.866" y="1120.62"/>
      <point x="-157.866" y="1085.62"/>
      <point x="-163.866" y="1049.62" type="curve"/>
      <point x="-161.866" y="1044.62" type="line"/>
      <point x="-43.8667" y="1050.62"/>
      <point x="47.1333" y="1092.62"/>
      <point x="111.133" y="1168.62" type="curve"/>
      <point x="142.134" y="1164.62" type="line"/>
      <point x="196.134" y="1255.62" type="line"/>
    </contour>
    <contour>
      <point x="106.133" y="1270.62" type="line"/>
      <point x="26.1333" y="1295.62"/>
      <point x="-9.86667" y="1322.62"/>
      <point x="-9.86667" y="1347.62" type="curve" smooth="yes"/>
      <point x="-9.86667" y="1361.62"/>
      <point x="6.13336" y="1376.62"/>
      <point x="40.1333" y="1376.62" type="curve" smooth="yes"/>
      <point x="80.1333" y="1376.62"/>
      <point x="106.133" y="1334.62"/>
      <point x="106.133" y="1289.62" type="curve" smooth="yes"/>
    </contour>
    <contour>
      <point x="1.70667" y="1036.43" type="move" name="_markAboveDot"/>
    </contour>
    <contour>
      <point x="1.70667" y="1036.43" type="move" name="_markAbove"/>
    </contour>
    <contour>
      <point x="3.41333" y="1036.43" type="move" name="_markAboveMark"/>
    </contour>
  </outline>
</glyph>
<glyph name="diGaf.above" format="1">
  <advance width="770"/>
  <outline>
    <contour>
      <point x="307.413" y="1058.4" type="line"/>
      <point x="302.413" y="1064.4" type="line"/>
      <point x="102.414" y="1005.4"/>
      <point x="-83.5863" y="940.403"/>
      <point x="-243.587" y="865.403" type="curve"/>
      <point x="-255.587" y="837.403"/>
      <point x="-264.587" y="811.403"/>
      <point x="-270.587" y="785.402" type="curve"/>
      <point x="-265.587" y="780.402" type="line"/>
      <point x="-109.587" y="855.403"/>
      <point x="65.4137" y="918.403"/>
      <point x="259.413" y="978.403" type="curve"/>
    </contour>
    <contour>
      <point x="6.82667" y="879.416" type="move" name="_gafAbove"/>
    </contour>
  </outline>
</glyph>
<glyph name="diHamza.below" format="1">
  <advance width="0"/>
  <outline>
    <contour>
      <point x="104.72" y="-496.931" type="line"/>
      <point x="123.72" y="-468.931"/>
      <point x="133.72" y="-444.931"/>
      <point x="133.72" y="-422.931" type="curve" smooth="yes"/>
      <point x="133.72" y="-388.93"/>
      <point x="105.72" y="-366.93"/>
      <point x="62.72" y="-366.93" type="curve" smooth="yes"/>
      <point x="19.72" y="-366.93"/>
      <point x="-23.6642" y="-386.494"/>
      <point x="-61.28" y="-419.93" type="curve" smooth="yes"/>
      <point x="-104.668" y="-458.498"/>
      <point x="-125.28" y="-501.931"/>
      <point x="-125.28" y="-532.931" type="curve" smooth="yes"/>
      <point x="-125.28" y="-570.931"/>
      <point x="-103.28" y="-595.931"/>
      <point x="-64.28" y="-612.931" type="curve"/>
      <point x="-78.28" y="-636.931"/>
      <point x="-91.28" y="-661.931"/>
      <point x="-103.28" y="-687.931" type="curve"/>
      <point x="-91.28" y="-699.931" type="line"/>
      <point x="-36.28" y="-664.931"/>
      <point x="49.72" y="-641.931"/>
      <point x="158.72" y="-627.931" type="curve"/>
      <point x="174.72" y="-600.931"/>
      <point x="188.72" y="-573.931"/>
      <point x="199.72" y="-546.931" type="curve"/>
      <point x="195.72" y="-537.931" type="line"/>
      <point x="160.72" y="-539.931"/>
      <point x="131.72" y="-540.931"/>
      <point x="94.7197" y="-540.931" type="curve" smooth="yes"/>
      <point x="9.72" y="-540.931"/>
      <point x="-36.28" y="-513.931"/>
      <point x="-36.28" y="-487.931" type="curve" smooth="yes"/>
      <point x="-36.28" y="-472.931"/>
      <point x="-9.28" y="-453.931"/>
      <point x="30.72" y="-452.931" type="curve"/>
      <point x="44.72" y="-452.931"/>
      <point x="56.72" y="-456.931"/>
      <point x="64.72" y="-466.931" type="curve"/>
      <point x="91.7197" y="-496.931" type="line"/>
    </contour>
    <contour>
      <point x="0.853333" y="-352" type="move" name="_hamzaBelow"/>
    </contour>
    <contour>
      <point x="37.22" y="-657.905" type="move" name="markBelowMark"/>
    </contour>
  </outline>
</glyph>
<glyph name="diHamza" format="1">
  <advance width="468"/>
  <outline>
    <contour>
      <point x="174.7" y="829.51" type="line"/>
      <point x="193.7" y="857.51"/>
      <point x="203.7" y="881.51"/>
      <point x="203.7" y="903.51" type="curve" smooth="yes"/>
      <point x="203.7" y="937.51"/>
      <point x="175.7" y="959.51"/>
      <point x="132.7" y="959.51" type="curve" smooth="yes"/>
      <point x="89.7" y="959.51"/>
      <point x="46.316" y="939.946"/>
      <point x="8.70003" y="906.51" type="curve" smooth="yes"/>
      <point x="-34.6887" y="867.942"/>
      <point x="-55.3" y="824.51"/>
      <point x="-55.3" y="793.51" type="curve" smooth="yes"/>
      <point x="-55.3" y="755.51"/>
      <point x="-33.3" y="730.51"/>
      <point x="5.70003" y="713.509" type="curve"/>
      <point x="-8.29997" y="689.509"/>
      <point x="-21.3" y="664.509"/>
      <point x="-33.3" y="638.509" type="curve"/>
      <point x="-21.3" y="626.509" type="line"/>
      <point x="33.7" y="661.509"/>
      <point x="119.7" y="684.509"/>
      <point x="228.7" y="698.509" type="curve"/>
      <point x="244.7" y="725.51"/>
      <point x="258.7" y="752.51"/>
      <point x="269.7" y="779.51" type="curve"/>
      <point x="265.7" y="788.51" type="line"/>
      <point x="230.7" y="786.51"/>
      <point x="201.7" y="785.51"/>
      <point x="164.7" y="785.51" type="curve" smooth="yes"/>
      <point x="79.7" y="785.51"/>
      <point x="33.7" y="812.51"/>
      <point x="33.7" y="838.51" type="curve" smooth="yes"/>
      <point x="33.7" y="853.51"/>
      <point x="60.7" y="872.51"/>
      <point x="100.7" y="873.51" type="curve"/>
      <point x="114.7" y="873.51"/>
      <point x="126.7" y="869.51"/>
      <point x="134.7" y="859.51" type="curve"/>
      <point x="161.7" y="829.51" type="line"/>
    </contour>
    <contour>
      <point x="13.6533" y="599.523" type="move" name="_hamzaAbove"/>
    </contour>
    <contour>
      <point x="71.68" y="959.51" type="move" name="markAboveMark"/>
    </contour>
  </outline>
</glyph>
<glyph name="diKasra" format="1">
  <advance width="0"/>
  <outline>
    <contour>
      <point x="204.133" y="-371.437" type="line"/>
      <point x="200.133" y="-367.437" type="line"/>
      <point x="85.1333" y="-411.437"/>
      <point x="-37.8667" y="-451.437"/>
      <point x="-161.867" y="-490.437" type="curve"/>
      <point x="-184.867" y="-583.437" type="line"/>
      <point x="-179.867" y="-589.437" type="line"/>
      <point x="-62.8667" y="-551.437"/>
      <point x="54.1333" y="-511.437"/>
      <point x="162.133" y="-465.437" type="curve"/>
    </contour>
    <contour>
      <point x="0.853333" y="-352" type="move" name="_markBelow"/>
    </contour>
    <contour>
      <point x="1.13687e-13" y="-352" type="move" name="_markBelowDot"/>
    </contour>
    <contour>
      <point x="0.853333" y="-352" type="move" name="_markBelowMark"/>
    </contour>
    <contour>
      <point x="9.633" y="-626.02" type="move" name="_markAboveAlt"/>
    </contour>
  </outline>
</glyph>
<glyph name="diLonga.above" format="1">
  <advance width="0"/>
  <outline>
    <contour>
      <point x="33.6" y="1409.86" type="line"/>
      <point x="-39.4" y="1308.86" type="line"/>
      <point x="-18.4" y="1221.86"/>
      <point x="-5.39998" y="1144.86"/>
      <point x="-5.39998" y="1065.86" type="curve"/>
      <point x="11.6" y="1059.86" type="line"/>
      <point x="31.6" y="1085.86"/>
      <point x="49.6" y="1112.86"/>
      <point x="64.6" y="1140.86" type="curve"/>
      <point x="68.6" y="1149.86"/>
      <point x="69.6" y="1159.86"/>
      <point x="69.6" y="1170.86" type="curve" smooth="yes"/>
      <point x="69.6" y="1236.86"/>
      <point x="63.6" y="1308.86"/>
      <point x="47.6" y="1403.86" type="curve"/>
    </contour>
    <contour>
      <point x="0.853333" y="1036.43" type="move" name="_markAbove"/>
    </contour>
    <contour>
      <point x="2.56" y="1036.43" type="move" name="_markAboveMark"/>
    </contour>
  </outline>
</glyph>
<glyph name="diMadda" format="1">
  <advance width="0"/>
  <outline>
    <contour>
      <point x="-52.0267" y="1047.59" type="line"/>
      <point x="-13.0267" y="1118.59" type="line"/>
      <point x="-11.0267" y="1121.59"/>
      <point x="-4.02667" y="1122.59"/>
      <point x="5.97333" y="1122.59" type="curve" smooth="yes"/>
      <point x="39.9732" y="1122.59"/>
      <point x="103.973" y="1105.59"/>
      <point x="183.973" y="1105.59" type="curve" smooth="yes"/>
      <point x="227.973" y="1105.59"/>
      <point x="270.973" y="1119.59"/>
      <point x="308.973" y="1154.59" type="curve"/>
      <point x="342.973" y="1259.59" type="line"/>
      <point x="330.973" y="1266.59" type="line"/>
      <point x="294.973" y="1232.59"/>
      <point x="252.973" y="1215.59"/>
      <point x="203.973" y="1215.59" type="curve" smooth="yes"/>
      <point x="109.973" y="1215.59"/>
      <point x="31.9733" y="1245.59"/>
      <point x="-22.0267" y="1245.59" type="curve" smooth="yes"/>
      <point x="-80.0267" y="1245.59"/>
      <point x="-113.027" y="1205.59"/>
      <point x="-119.027" y="1127.59" type="curve"/>
      <point x="-68.0267" y="1047.59" type="line"/>
    </contour>
    <contour>
      <point x="-0.853333" y="1036.43" type="move" name="_hamzaAbove"/>
    </contour>
  </outline>
</glyph>
<glyph name="diShadda" format="1">
  <advance width="0"/>
  <outline>
    <contour>
      <point x="118.196" y="1334.15" type="line"/>
      <point x="99.1964" y="1319.15"/>
      <point x="79.1966" y="1302.15"/>
      <point x="60.1966" y="1284.15" type="curve"/>
      <point x="70.1966" y="1257.15"/>
      <point x="78.1966" y="1229.15"/>
      <point x="86.1966" y="1197.15" type="curve"/>
      <point x="83.1966" y="1191.15"/>
      <point x="77.1966" y="1188.15"/>
      <point x="68.1966" y="1188.15" type="curve" smooth="yes"/>
      <point x="49.1966" y="1188.15"/>
      <point x="34.1966" y="1196.15"/>
      <point x="25.1966" y="1210.15" type="curve" smooth="yes"/>
      <point x="16.1966" y="1224.15"/>
      <point x="10.1966" y="1246.15"/>
      <point x="9.1966" y="1274.15" type="curve"/>
      <point x="4.1966" y="1277.15" type="line"/>
      <point x="-8.8034" y="1270.15"/>
      <point x="-20.8034" y="1262.15"/>
      <point x="-33.8034" y="1253.15" type="curve"/>
      <point x="-33.8034" y="1224.15"/>
      <point x="-34.8034" y="1191.15"/>
      <point x="-40.8034" y="1178.15" type="curve"/>
      <point x="-46.8034" y="1167.15"/>
      <point x="-53.8034" y="1160.15"/>
      <point x="-64.8034" y="1160.15" type="curve" smooth="yes"/>
      <point x="-96.8037" y="1160.15"/>
      <point x="-96.8037" y="1206.15"/>
      <point x="-96.8037" y="1245.15" type="curve"/>
      <point x="-99.8037" y="1247.15" type="line"/>
      <point x="-114.804" y="1240.15"/>
      <point x="-128.804" y="1231.15"/>
      <point x="-141.804" y="1222.15" type="curve"/>
      <point x="-146.804" y="1198.15"/>
      <point x="-146.804" y="1173.15"/>
      <point x="-146.804" y="1149.15" type="curve" smooth="yes"/>
      <point x="-146.804" y="1079.15"/>
      <point x="-110.804" y="1047.15"/>
      <point x="-74.8033" y="1047.15" type="curve" smooth="yes"/>
      <point x="-43.8033" y="1047.15"/>
      <point x="-15.8033" y="1066.15"/>
      <point x="7.1967" y="1098.15" type="curve"/>
      <point x="29.1967" y="1085.15"/>
      <point x="50.1967" y="1081.15"/>
      <point x="72.1967" y="1081.15" type="curve" smooth="yes"/>
      <point x="105.196" y="1081.15"/>
      <point x="145.196" y="1114.15"/>
      <point x="145.196" y="1216.15" type="curve" smooth="yes"/>
      <point x="145.196" y="1235.15"/>
      <point x="135.196" y="1294.15"/>
      <point x="122.196" y="1332.15" type="curve"/>
    </contour>
    <contour>
      <point x="4.1966" y="1036.43" type="move" name="_markAbove"/>
    </contour>
    <contour>
      <point x="4.1966" y="1036.43" type="move" name="_markAboveDot"/>
    </contour>
    <contour>
      <point x="-0.803553" y="1324.04" type="move" name="markAboveMark"/>
    </contour>
    <contour>
      <point x="9.1966" y="1036.43" type="move" name="markBelowMark"/>
    </contour>
  </outline>
</glyph>
<glyph name="diSukun" format="1">
  <advance width="0"/>
  <outline>
    <contour>
      <point x="125.44" y="1130.47" type="curve"/>
      <point x="137.44" y="1161.47"/>
      <point x="144.44" y="1195.47"/>
      <point x="144.44" y="1230.47" type="curve" smooth="yes"/>
      <point x="144.44" y="1305.47"/>
      <point x="80.4398" y="1380.47"/>
      <point x="15.4398" y="1380.47" type="curve" smooth="yes"/>
      <point x="-40.5602" y="1380.47"/>
      <point x="-121.56" y="1312.47"/>
      <point x="-121.56" y="1203.47" type="curve" smooth="yes"/>
      <point x="-121.56" y="1111.47"/>
      <point x="-66.5602" y="1059.47"/>
      <point x="3.43978" y="1059.47" type="curve" smooth="yes"/>
      <point x="50.4398" y="1059.47"/>
      <point x="94.4398" y="1083.47"/>
    </contour>
    <contour>
      <point x="94.4398" y="1200.47" type="curve"/>
      <point x="65.4398" y="1179.47"/>
      <point x="37.4398" y="1167.47"/>
      <point x="8.43978" y="1167.47" type="curve" smooth="yes"/>
      <point x="-30.5602" y="1167.47"/>
      <point x="-72.5602" y="1192.47"/>
      <point x="-72.5602" y="1225.47" type="curve" smooth="yes"/>
      <point x="-72.5602" y="1257.47"/>
      <point x="-33.5602" y="1282.47"/>
      <point x="-2.5602" y="1282.47" type="curve" smooth="yes"/>
      <point x="32.4398" y="1282.47"/>
      <point x="76.4398" y="1256.47"/>
    </contour>
    <contour>
      <point x="2.56" y="1036.43" type="move" name="_markAbove"/>
    </contour>
    <contour>
      <point x="0.853333" y="1036.43" type="move" name="_markAboveDot"/>
    </contour>
    <contour>
      <point x="3.76" y="1036.43" type="move" name="_markAboveMark"/>
    </contour>
  </outline>
</glyph>
<glyph name="diWasla" format="1">
  <advance width="458"/>
  <outline>
    <contour>
      <point x="-53.1605" y="1049.56" type="line"/>
      <point x="-29.1605" y="1077.56"/>
      <point x="-9.16" y="1099.56"/>
      <point x="-1.16" y="1099.56" type="curve" smooth="yes"/>
      <point x="13.84" y="1099.56"/>
      <point x="71.84" y="1064.56"/>
      <point x="163.84" y="1064.56" type="curve" smooth="yes"/>
      <point x="300.84" y="1064.56"/>
      <point x="314.839" y="1205.56"/>
      <point x="314.839" y="1225.56" type="curve" smooth="yes"/>
      <point x="314.839" y="1313.56"/>
      <point x="255.84" y="1342.56"/>
      <point x="215.84" y="1342.56" type="curve" smooth="yes"/>
      <point x="142.84" y="1342.56"/>
      <point x="89.84" y="1287.56"/>
      <point x="31.84" y="1211.56" type="curve"/>
      <point x="12.84" y="1221.56"/>
      <point x="-0.16" y="1226.56"/>
      <point x="-9.16" y="1226.56" type="curve" smooth="yes"/>
      <point x="-24.1605" y="1226.56"/>
      <point x="-43.1605" y="1207.56"/>
      <point x="-69.1605" y="1157.56" type="curve"/>
      <point x="-69.1605" y="1060.56" type="line"/>
    </contour>
    <contour>
      <point x="74.84" y="1190.56" type="curve"/>
      <point x="107.84" y="1228.56"/>
      <point x="145.84" y="1255.56"/>
      <point x="189.84" y="1255.56" type="curve" smooth="yes"/>
      <point x="224.84" y="1255.56"/>
      <point x="251.84" y="1232.56"/>
      <point x="258.84" y="1192.56" type="curve"/>
      <point x="248.84" y="1173.56"/>
      <point x="222.84" y="1165.56"/>
      <point x="186.84" y="1165.56" type="curve" smooth="yes"/>
      <point x="153.84" y="1165.56"/>
      <point x="115.84" y="1174.56"/>
    </contour>
    <contour>
      <point x="115.413" y="1339.11" type="move" name="markAboveMark"/>
    </contour>
    <contour>
      <point x="-1.16" y="1036.43" type="move" name="_hamzaAbove"/>
    </contour>
  </outline>
</glyph>
<glyph name="dig3" format="1">
  <advance width="747"/>
  <outline>
    <contour>
      <point x="129" y="925" type="line"/>
      <point x="40" y="764" type="line"/>
      <point x="168" y="483"/>
      <point x="239" y="254"/>
      <point x="239" y="98" type="curve" smooth="yes"/>
      <point x="239" y="46"/>
      <point x="234" y="10"/>
      <point x="225" y="-21" type="curve"/>
      <point x="257" y="-42" type="line"/>
      <point x="321" y="34"/>
      <point x="364" y="115"/>
      <point x="364" y="209" type="curve" smooth="yes"/>
      <point x="364" y="302"/>
      <point x="337" y="429"/>
      <point x="296" y="550" type="curve"/>
      <point x="340" y="550" type="line" smooth="yes"/>
      <point x="402" y="550"/>
      <point x="444" y="579"/>
      <point x="474" y="628" type="curve"/>
      <point x="504" y="604"/>
      <point x="535" y="593"/>
      <point x="567" y="593" type="curve" smooth="yes"/>
      <point x="666" y="593"/>
      <point x="716" y="692"/>
      <point x="716" y="809" type="curve" smooth="yes"/>
      <point x="716" y="846"/>
      <point x="713" y="878"/>
      <point x="709" y="908" type="curve"/>
      <point x="640" y="926" type="line"/>
      <point x="640" y="866" type="line" smooth="yes"/>
      <point x="640" y="810"/>
      <point x="613" y="779"/>
      <point x="569" y="779" type="curve" smooth="yes"/>
      <point x="512" y="779"/>
      <point x="485" y="845"/>
      <point x="468" y="923" type="curve"/>
      <point x="404" y="906" type="line"/>
      <point x="406" y="891"/>
      <point x="408" y="868"/>
      <point x="408" y="848" type="curve" smooth="yes"/>
      <point x="408" y="783"/>
      <point x="396" y="746"/>
      <point x="330" y="746" type="curve" smooth="yes"/>
      <point x="255" y="746"/>
      <point x="197" y="810"/>
      <point x="157" y="925" type="curve"/>
    </contour>
  </outline>
</glyph>
<glyph name="dig5Farsi" format="1">
  <advance width="747"/>
  <outline>
    <contour>
      <point x="370" y="60" type="line"/>
      <point x="399" y="20"/>
      <point x="438" y="0"/>
      <point x="485" y="0" type="curve" smooth="yes"/>
      <point x="560" y="0"/>
      <point x="623" y="53"/>
      <point x="666" y="186" type="curve" smooth="yes"/>
      <point x="684" y="244"/>
      <point x="692" y="302"/>
      <point x="692" y="362" type="curve" smooth="yes"/>
      <point x="692" y="595"/>
      <point x="524" y="782"/>
      <point x="308" y="956" type="curve"/>
      <point x="289" y="951" type="line"/>
      <point x="275" y="904"/>
      <point x="264" y="858"/>
      <point x="255" y="813" type="curve"/>
      <point x="151" y="660"/>
      <point x="69" y="491"/>
      <point x="69" y="314" type="curve" smooth="yes"/>
      <point x="69" y="108"/>
      <point x="147" y="0"/>
      <point x="252" y="0" type="curve" smooth="yes"/>
      <point x="300" y="0"/>
      <point x="338" y="23"/>
      <point x="367" y="60" type="curve"/>
    </contour>
    <contour>
      <point x="402" y="356" type="line"/>
      <point x="337" y="313" type="line"/>
      <point x="334" y="288"/>
      <point x="333" y="268"/>
      <point x="325" y="245" type="curve" smooth="yes"/>
      <point x="314" y="213"/>
      <point x="293" y="196"/>
      <point x="260" y="196" type="curve" smooth="yes"/>
      <point x="218" y="196"/>
      <point x="155" y="239"/>
      <point x="155" y="340" type="curve" smooth="yes"/>
      <point x="155" y="434"/>
      <point x="218" y="555"/>
      <point x="325" y="692" type="curve"/>
      <point x="329" y="692" type="line"/>
      <point x="495" y="536"/>
      <point x="598" y="389"/>
      <point x="598" y="275" type="curve" smooth="yes"/>
      <point x="598" y="230"/>
      <point x="563" y="196"/>
      <point x="523" y="196" type="curve" smooth="yes"/>
      <point x="458" y="196"/>
      <point x="421" y="232"/>
      <point x="412" y="309" type="curve" smooth="yes"/>
      <point x="407" y="356" type="line"/>
    </contour>
  </outline>
</glyph>
<glyph name="legAllah" format="1">
  <advance width="1504"/>
  <outline>
    <contour>
      <point x="1053" y="787" type="line"/>
      <point x="1014" y="743"/>
      <point x="980" y="695"/>
      <point x="951" y="646" type="curve"/>
      <point x="969" y="510"/>
      <point x="1024" y="308"/>
      <point x="1024" y="245" type="curve" smooth="yes"/>
      <point x="1024" y="219"/>
      <point x="1009" y="211"/>
      <point x="986" y="211" type="curve" smooth="yes"/>
      <point x="927" y="211"/>
      <point x="806" y="269"/>
      <point x="806" y="364" type="curve" smooth="yes"/>
      <point x="806" y="461"/>
      <point x="797" y="613"/>
      <point x="781" y="727" type="curve"/>
      <point x="769" y="733" type="line"/>
      <point x="732" y="690"/>
      <point x="697" y="644"/>
      <point x="666" y="599" type="curve"/>
      <point x="682" y="496"/>
      <point x="697" y="371"/>
      <point x="697" y="288" type="curve" smooth="yes"/>
      <point x="697" y="251"/>
      <point x="697" y="240"/>
      <point x="676" y="228" type="curve" smooth="yes"/>
      <point x="643" y="210"/>
      <point x="593" y="200"/>
      <point x="565" y="200" type="curve" smooth="yes"/>
      <point x="501" y="200"/>
      <point x="475" y="237"/>
      <point x="475" y="306" type="curve" smooth="yes"/>
      <point x="475" y="328"/>
      <point x="479" y="422"/>
      <point x="481" y="480" type="curve"/>
      <point x="505" y="522"/>
      <point x="527" y="565"/>
      <point x="546" y="607" type="curve"/>
      <point x="539" y="616" type="line"/>
      <point x="481" y="586" type="line"/>
      <point x="481" y="666" type="line"/>
      <point x="470" y="675" type="line"/>
      <point x="435" y="648"/>
      <point x="405" y="620"/>
      <point x="377" y="591" type="curve"/>
      <point x="379" y="542" type="line"/>
      <point x="235" y="461"/>
      <point x="141" y="371"/>
      <point x="109" y="267" type="curve" smooth="yes"/>
      <point x="94" y="221"/>
      <point x="85" y="190"/>
      <point x="85" y="164" type="curve" smooth="yes"/>
      <point x="85" y="87"/>
      <point x="148" y="44"/>
      <point x="257" y="44" type="curve" smooth="yes"/>
      <point x="297" y="44"/>
      <point x="350" y="54"/>
      <point x="395" y="87" type="curve"/>
      <point x="410" y="30"/>
      <point x="456" y="0"/>
      <point x="533" y="0" type="curve" smooth="yes"/>
      <point x="616" y="0"/>
      <point x="697" y="30"/>
      <point x="760" y="87" type="curve"/>
      <point x="813" y="37"/>
      <point x="876" y="5"/>
      <point x="940" y="5" type="curve" smooth="yes"/>
      <point x="989" y="5"/>
      <point x="1038" y="37"/>
      <point x="1090" y="120" type="curve" smooth="yes"/>
      <point x="1119" y="166"/>
      <point x="1135" y="215"/>
      <point x="1135" y="264" type="curve" smooth="yes"/>
      <point x="1135" y="449"/>
      <point x="1069" y="649"/>
      <point x="1069" y="779" type="curve"/>
    </contour>
    <contour>
      <point x="383" y="239" type="line"/>
      <point x="349" y="231"/>
      <point x="318" y="226"/>
      <point x="293" y="226" type="curve" smooth="yes"/>
      <point x="234" y="226"/>
      <point x="196" y="248"/>
      <point x="196" y="274" type="curve" smooth="yes"/>
      <point x="196" y="303"/>
      <point x="260" y="350"/>
      <point x="383" y="409" type="curve"/>
    </contour>
    <contour>
      <point x="1307" y="-28" type="line"/>
      <point x="1341" y="12"/>
      <point x="1368" y="51"/>
      <point x="1389" y="89" type="curve"/>
      <point x="1411" y="123"/>
      <point x="1420" y="228"/>
      <point x="1420" y="385" type="curve" smooth="yes"/>
      <point x="1420" y="579"/>
      <point x="1417" y="781"/>
      <point x="1397" y="997" type="curve"/>
      <point x="1380" y="1006" type="line"/>
      <point x="1342" y="969"/>
      <point x="1304" y="927"/>
      <point x="1264" y="879" type="curve"/>
      <point x="1288" y="660"/>
      <point x="1298" y="445"/>
      <point x="1298" y="229" type="curve" smooth="yes"/>
      <point x="1298" y="133"/>
      <point x="1295" y="59"/>
      <point x="1285" y="-12" type="curve"/>
    </contour>
    <contour>
      <point x="694" y="1349" type="line"/>
      <point x="621" y="1248" type="line"/>
      <point x="642" y="1161"/>
      <point x="655" y="1084"/>
      <point x="655" y="1005" type="curve"/>
      <point x="672" y="999" type="line"/>
      <point x="692" y="1025"/>
      <point x="710" y="1052"/>
      <point x="725" y="1080" type="curve"/>
      <point x="729" y="1089"/>
      <point x="730" y="1099"/>
      <point x="730" y="1110" type="curve" smooth="yes"/>
      <point x="730" y="1176"/>
      <point x="724" y="1248"/>
      <point x="708" y="1343" type="curve"/>
    </contour>
    <contour>
      <point x="826" y="1042" type="line"/>
      <point x="807" y="1027"/>
      <point x="787" y="1010"/>
      <point x="768" y="992" type="curve"/>
      <point x="778" y="965"/>
      <point x="786" y="937"/>
      <point x="794" y="905" type="curve"/>
      <point x="791" y="899"/>
      <point x="785" y="896"/>
      <point x="776" y="896" type="curve" smooth="yes"/>
      <point x="757" y="896"/>
      <point x="742" y="904"/>
      <point x="733" y="918" type="curve" smooth="yes"/>
      <point x="724" y="932"/>
      <point x="718" y="954"/>
      <point x="717" y="982" type="curve"/>
      <point x="712" y="985" type="line"/>
      <point x="699" y="978"/>
      <point x="687" y="970"/>
      <point x="674" y="961" type="curve"/>
      <point x="674" y="932"/>
      <point x="673" y="899"/>
      <point x="667" y="886" type="curve"/>
      <point x="661" y="875"/>
      <point x="654" y="868"/>
      <point x="643" y="868" type="curve" smooth="yes"/>
      <point x="611" y="868"/>
      <point x="611" y="914"/>
      <point x="611" y="953" type="curve"/>
      <point x="608" y="955" type="line"/>
      <point x="593" y="948"/>
      <point x="579" y="939"/>
      <point x="566" y="930" type="curve"/>
      <point x="561" y="906"/>
      <point x="561" y="881"/>
      <point x="561" y="857" type="curve" smooth="yes"/>
      <point x="561" y="787"/>
      <point x="597" y="755"/>
      <point x="633" y="755" type="curve" smooth="yes"/>
      <point x="664" y="755"/>
      <point x="692" y="774"/>
      <point x="715" y="806" type="curve"/>
      <point x="737" y="793"/>
      <point x="758" y="789"/>
      <point x="780" y="789" type="curve" smooth="yes"/>
      <point x="813" y="789"/>
      <point x="853" y="822"/>
      <point x="853" y="924" type="curve" smooth="yes"/>
      <point x="853" y="943"/>
      <point x="843" y="1002"/>
      <point x="830" y="1040" type="curve"/>
    </contour>
  </outline>
</glyph>
<glyph name="legLAShort.isol" format="1">
  <advance width="870"/>
  <outline>
    <contour>
      <point x="363" y="737" type="line"/>
      <point x="261" y="820"/>
      <point x="186" y="889"/>
      <point x="156" y="937" type="curve"/>
      <point x="143" y="938" type="line"/>
      <point x="111" y="884"/>
      <point x="92" y="834"/>
      <point x="92" y="796" type="curve" smooth="yes"/>
      <point x="92" y="746"/>
      <point x="130" y="686"/>
      <point x="189" y="606" type="curve" smooth="yes"/>
      <point x="370" y="362"/>
      <point x="487" y="193"/>
      <point x="495" y="140" type="curve"/>
      <point x="412" y="102"/>
      <point x="277" y="61"/>
      <point x="71" y="15" type="curve"/>
      <point x="71" y="-10" type="line"/>
      <point x="180" y="-53"/>
      <point x="279" y="-71"/>
      <point x="369" y="-71" type="curve" smooth="yes"/>
      <point x="522" y="-71"/>
      <point x="599" y="-11"/>
      <point x="652" y="83" type="curve" smooth="yes"/>
      <point x="714" y="193"/>
      <point x="739" y="335"/>
      <point x="739" y="499" type="curve" smooth="yes"/>
      <point x="739" y="689" type="line"/>
      <point x="830" y="756" type="line"/>
      <point x="765" y="864"/>
      <point x="719" y="954"/>
      <point x="719" y="998" type="curve" smooth="yes"/>
      <point x="719" y="1009"/>
      <point x="721" y="1016"/>
      <point x="723" y="1021" type="curve"/>
      <point x="706" y="1032" type="line"/>
      <point x="626" y="971"/>
      <point x="605" y="925"/>
      <point x="605" y="870" type="curve" smooth="yes"/>
      <point x="605" y="783"/>
      <point x="632" y="724"/>
      <point x="632" y="341" type="curve" smooth="yes"/>
      <point x="632" y="228"/>
      <point x="597" y="191"/>
      <point x="549" y="163" type="curve"/>
      <point x="549" y="343"/>
      <point x="466" y="436"/>
      <point x="315" y="663" type="curve"/>
    </contour>
    <contour>
      <point x="627.2" y="1148.22" type="move" name="markAbove_1"/>
    </contour>
    <contour>
      <point x="282.453" y="-121.544" type="move" name="markBelow"/>
    </contour>
    <contour>
      <point x="282.453" y="998" type="move" name="hamzaAbove"/>
    </contour>
    <contour>
      <point x="337.92" y="-127.517" type="move" name="hamzaBelow"/>
    </contour>
    <contour>
      <point x="517.973" y="1004.86" type="move" name="smallVAbove"/>
    </contour>
    <contour>
      <point x="234.667" y="1100.43" type="move" name="markAbove_2"/>
    </contour>
  </outline>
</glyph>
<glyph name="maFullStop" format="1">
  <advance width="750"/>
  <outline>
    <contour>
      <point x="650" y="251" type="line"/>
      <point x="597" y="216"/>
      <point x="501" y="200"/>
      <point x="373" y="200" type="curve" smooth="yes"/>
      <point x="91" y="200" type="line"/>
      <point x="70" y="165" type="line"/>
      <point x="198" y="60"/>
      <point x="250" y="0"/>
      <point x="427" y="0" type="curve" smooth="yes"/>
      <point x="488" y="0"/>
      <point x="544" y="8"/>
      <point x="595" y="28" type="curve"/>
      <point x="624" y="95"/>
      <point x="649" y="162"/>
      <point x="670" y="231" type="curve"/>
    </contour>
  </outline>
</glyph>
<glyph name="maParentright" format="1">
  <advance width="524"/>
  <outline>
    <contour>
      <point x="408" y="395" type="line"/>
      <point x="408" y="661"/>
      <point x="310" y="889"/>
      <point x="93" y="1041" type="curve"/>
      <point x="57" y="1005" type="line"/>
      <point x="179" y="889"/>
      <point x="269" y="645"/>
      <point x="269" y="395" type="curve" smooth="yes"/>
      <point x="269" y="144"/>
      <point x="192" y="-84"/>
      <point x="57" y="-216" type="curve"/>
      <point x="93" y="-252" type="line"/>
      <point x="310" y="-99"/>
      <point x="408" y="128"/>
      <point x="408" y="393" type="curve"/>
    </contour>
  </outline>
</glyph>
<glyph name="maSemicolon" format="1">
  <advance width="374"/>
  <outline>
    <contour>
      <point x="186" y="-16" type="line"/>
      <point x="247" y="-16"/>
      <point x="292" y="29"/>
      <point x="292" y="96" type="curve" smooth="yes"/>
      <point x="292" y="158"/>
      <point x="247" y="205"/>
      <point x="186" y="205" type="curve" smooth="yes"/>
      <point x="123" y="205"/>
      <point x="78" y="158"/>
      <point x="78" y="96" type="curve" smooth="yes"/>
      <point x="78" y="29"/>
      <point x="123" y="-16"/>
      <point x="185" y="-16" type="curve"/>
    </contour>
    <contour>
      <point x="225" y="359" type="line"/>
      <point x="273" y="359"/>
      <point x="319" y="389"/>
      <point x="319" y="434" type="curve" smooth="yes"/>
      <point x="319" y="466"/>
      <point x="304" y="486"/>
      <point x="297" y="486" type="curve"/>
      <point x="225" y="501"/>
      <point x="188" y="544"/>
      <point x="188" y="595" type="curve" smooth="yes"/>
      <point x="188" y="657"/>
      <point x="230" y="700"/>
      <point x="317" y="737" type="curve"/>
      <point x="304" y="788" type="line"/>
      <point x="182" y="759"/>
      <point x="52" y="681"/>
      <point x="52" y="544" type="curve" smooth="yes"/>
      <point x="52" y="432"/>
      <point x="150" y="359"/>
      <point x="224" y="359" type="curve"/>
    </contour>
  </outline>
</glyph>
